<svg width="63" height="80" viewBox="0 0 63 80" fill="none" xmlns="http://www.w3.org/2000/svg">
<path d="M24.7502 0.112305C17.9689 1.14355 12.3908 5.75293 10.2189 12.1123C9.46894 14.3154 9.32831 15.4248 9.21894 19.5029L9.12519 23.3467L8.65644 23.9561C8.20331 24.5186 7.40644 24.9873 5.45331 25.8623C3.64081 26.6592 2.37519 28.5342 2.21894 30.6123C2.15644 31.6279 2.21894 31.9873 2.93769 34.4248C4.07831 38.2686 4.07831 38.3154 2.04706 40.8779C0.593935 42.7061 0.125185 43.7061 0.0158098 45.1123C-0.0935652 46.7061 0.35956 48.0029 1.53143 49.4404C2.92206 51.1279 3.01581 52.2373 1.89081 53.9717C0.968935 55.4092 0.718935 56.2842 0.79706 57.8154C0.906435 59.6592 1.31268 60.3623 3.67206 62.7686L5.60956 64.7217L5.29706 65.4561C5.12519 65.8467 4.82831 66.7217 4.64081 67.3936C4.34394 68.4873 4.29706 69.1123 4.23456 73.7998L4.17206 79.0029L4.64081 79.4717C4.90644 79.7217 5.26581 79.9404 5.45331 79.9404C5.98456 79.9404 6.68769 79.5029 6.78144 79.1123C6.81269 78.9248 6.87519 76.5498 6.90644 73.8467C6.96894 68.3467 7.01581 68.0029 8.10956 65.7998C9.18769 63.6123 10.8596 61.9404 13.1252 60.7998C14.4846 60.1123 15.7814 59.7842 17.8752 59.6123C18.8127 59.5498 19.8439 59.4404 20.1408 59.3936C20.6721 59.2998 20.8908 59.4404 25.2658 62.8311L29.8283 66.3623V71.1592C29.8283 75.4092 29.8596 76.0186 30.1096 76.5029C30.6252 77.5342 31.8439 77.5342 32.3596 76.5029C32.6096 76.0186 32.6408 75.4092 32.6408 71.1592V66.3623L35.2814 64.3311C36.7346 63.2061 37.9533 62.1748 38.0158 62.0498C38.2346 61.4404 38.1096 60.9092 37.6252 60.5029C36.7658 59.7686 36.8127 59.7529 32.8127 62.8779C32.0002 63.5029 31.2502 63.9873 31.1408 63.9404C30.8752 63.8467 23.4533 58.0967 23.3439 57.8936C23.2971 57.8154 23.5158 57.5029 23.8283 57.1904C25.0002 56.0029 25.7502 54.5342 26.1564 52.5342C26.2346 52.1748 26.3127 52.1123 26.5939 52.1904C29.1252 52.8936 33.0314 52.9092 35.6564 52.2217C38.7033 51.4404 41.5314 49.7998 43.8127 47.5186C45.8752 45.4561 47.2971 43.1748 48.1721 40.4873C48.9377 38.1123 49.0471 36.9404 49.0471 30.8779C49.0471 24.4404 49.1564 24.8779 47.4689 24.2686C44.6877 23.2842 42.2033 21.1592 40.9377 18.6904C40.0471 16.9561 39.7658 16.6592 39.0314 16.6592C38.4846 16.6592 38.3596 16.7529 37.6252 17.6279C36.4846 19.0342 34.0002 21.5342 32.6877 22.6279C27.7189 26.6904 21.6877 29.1279 14.7814 29.8467C13.1096 30.0029 12.7189 30.0967 12.4377 30.3779C11.9377 30.8779 11.9846 31.7529 12.5471 32.2217C13.0314 32.6592 13.4533 32.6748 15.7346 32.4248C23.9221 31.5498 31.5158 27.8779 37.2658 22.0342L38.8283 20.4404L39.2814 21.1592C40.5002 23.0811 43.0939 25.2686 45.3283 26.2686L46.3752 26.7373L46.3908 31.4404C46.3908 36.5029 46.2658 37.7998 45.5627 39.8623C44.5002 42.9717 42.3908 45.7217 39.6252 47.5811C38.4846 48.3467 36.4846 49.2529 34.9846 49.6592C33.8596 49.9561 33.2814 50.0186 31.2346 50.0186C28.3283 50.0186 27.0158 49.7217 24.5939 48.5342C20.5627 46.5654 17.4846 42.7529 16.5471 38.5498C16.1408 36.7373 15.9689 36.3467 15.4221 36.0498C14.8908 35.7529 14.2814 35.9404 13.8439 36.5342C13.5314 36.9561 13.5314 37.0342 13.7189 38.1748C14.5627 43.1904 17.9689 47.9873 22.4221 50.4248C23.5002 51.0186 23.5783 51.0967 23.5783 51.5811C23.5783 53.0342 22.6096 54.8467 21.3127 55.8467C20.3596 56.5654 19.5002 56.8311 17.4689 56.9873C13.4689 57.2998 10.5471 58.6279 7.98456 61.3311L7.01581 62.3467L5.51581 60.8779C3.79706 59.1592 3.42206 58.5654 3.42206 57.4404C3.42206 56.6123 3.57831 56.1904 4.34394 55.0654C5.75019 52.9717 5.60956 50.1748 4.00019 48.2061C2.95331 46.9404 2.64081 46.3311 2.64081 45.5967C2.64081 44.6436 2.93768 44.0654 4.26581 42.3779C5.87519 40.3623 6.26581 39.5498 6.35956 38.0498C6.42206 36.9561 6.35956 36.5967 5.60956 34.0654C4.71894 31.0029 4.68769 30.3936 5.31269 29.3779C5.71894 28.7061 6.18769 28.3936 7.71894 27.7686C9.20331 27.1592 10.1721 26.4561 10.8752 25.4561C11.7189 24.2686 11.8596 23.5342 11.8596 20.3467C11.8596 18.7842 11.9377 16.8779 12.0314 16.1123C12.8127 9.6748 17.5471 4.45605 23.9689 2.97168C25.0783 2.70605 25.9221 2.6748 31.3127 2.6748C37.1096 2.6748 37.4689 2.69043 38.7814 3.01855C44.1408 4.39355 48.2346 8.2373 49.8752 13.4561C50.4064 15.1748 50.6096 17.0186 50.6096 20.3467C50.6096 23.5498 50.7346 24.2061 51.6252 25.4873C52.3127 26.5029 53.1564 27.0967 54.7502 27.7686C56.2814 28.3936 56.7502 28.7061 57.1564 29.3779C57.7814 30.3936 57.7502 31.0029 56.8596 34.0654C56.1096 36.5967 56.0471 36.9561 56.1096 38.0498C56.2033 39.5498 56.5939 40.3623 58.2033 42.3779C58.8439 43.2061 59.4846 44.1123 59.6096 44.4092C60.0939 45.5811 59.7814 46.6123 58.4689 48.2061C56.8596 50.1748 56.7189 52.9717 58.1252 55.0654C58.8908 56.2061 59.0471 56.6123 59.0471 57.4873C59.0471 58.5498 58.6096 59.2529 56.7971 61.0342L55.4533 62.3467L54.4846 61.3311C51.8752 58.5811 48.2502 56.9717 44.6408 56.9717C42.9533 56.9717 41.1564 56.1436 40.2189 54.9404C39.5314 54.0498 39.0627 53.6904 38.6252 53.6904C38.0627 53.6904 37.5158 54.0654 37.3127 54.5811C36.8596 55.7686 39.4846 58.4404 41.7814 59.1592C42.1252 59.2686 42.4533 59.3936 42.5314 59.4561C42.5939 59.5186 41.4377 63.7529 39.9689 68.8623C38.5002 73.9561 37.2971 78.3936 37.2971 78.6904C37.2971 79.0811 37.4064 79.3154 37.7189 79.5811C38.5783 80.3311 39.6408 79.8311 40.0002 78.5029C40.0939 78.1279 41.3439 73.7529 42.7658 68.7686L45.3752 59.7061L45.8439 59.7529C46.9377 59.8467 47.9533 60.1748 49.2814 60.7998C51.5939 61.9248 53.2502 63.5498 54.3596 65.7998C55.4377 67.9717 55.4846 68.3154 55.5939 74.1123C55.7033 79.8623 55.6721 79.7061 56.7502 79.8936C57.2346 79.9717 57.3752 79.9092 57.7971 79.4873L58.2971 79.0029L58.2346 73.7998C58.1721 69.1123 58.1252 68.4873 57.8283 67.3936C57.6408 66.7217 57.3439 65.8467 57.1721 65.4561L56.8596 64.7217L58.7971 62.7686C61.1564 60.3623 61.5627 59.6592 61.6721 57.8154C61.7502 56.2842 61.5002 55.4092 60.5783 53.9717C59.5471 52.3779 59.5627 51.1123 60.6564 49.7686C62.1564 47.9248 62.5783 46.8311 62.4533 45.0967C62.3439 43.7061 61.8596 42.7061 60.4221 40.8779C58.4064 38.3311 58.3908 38.2217 59.4689 34.6592C60.1096 32.5654 60.2033 32.0186 60.2033 30.8779C60.2033 29.7686 60.1408 29.4092 59.7971 28.6592C59.2658 27.5186 58.0939 26.3467 57.0158 25.8623C55.0627 24.9873 54.2658 24.5186 53.8127 23.9561L53.3439 23.3467L53.2502 19.5029C53.1408 15.4404 53.0002 14.3154 52.2502 12.1436C50.2658 6.2998 45.3283 1.84668 39.2502 0.37793C37.9846 0.0810547 37.3596 0.0498047 31.7814 0.00292969C28.4377 -0.0126953 25.2658 0.0341797 24.7502 0.112305Z" fill="black"/>
<path d="M19.4219 63.2217C19 63.3936 18.5781 63.9717 18.5781 64.378C18.5781 64.6905 22.3594 78.253 22.6719 79.0499C23.0156 79.9249 23.9844 80.2061 24.7187 79.628C24.9219 79.4561 25.1406 79.1592 25.2031 78.9561C25.3281 78.4561 21.2031 63.8936 20.8125 63.5186C20.4531 63.1749 19.8437 63.0342 19.4219 63.2217Z" fill="black"/>
</svg>
