<svg width="75" height="38" viewBox="0 0 75 38" fill="none" xmlns="http://www.w3.org/2000/svg">
<path d="M18.9941 37.9882C29.4003 37.9882 37.9915 29.3853 37.9915 18.9941C37.9915 8.58794 29.3853 0 18.9791 0C8.59125 0 0 8.58794 0 18.9941C0 29.3853 8.60633 37.9882 18.9941 37.9882Z" fill="#62B2A1"/>
<path d="M18.9804 34.8655C14.8722 34.8655 10.4969 33.1701 7.72656 30.1795C9.82171 27.0105 14.0237 25.1883 18.9804 25.1883C23.9004 25.1883 28.1359 26.9738 30.2526 30.1795C27.4639 33.1701 23.1038 34.8655 18.9804 34.8655ZM18.9804 22.0126C15.3903 21.9825 12.5873 18.9742 12.5873 15.0009C12.5689 11.2568 15.4187 8.11462 18.9804 8.11462C22.5605 8.11462 25.3769 11.2568 25.3769 15.0009C25.3769 18.9742 22.5889 22.0429 18.9804 22.0126Z" fill="white"/>
<path d="M66.3209 24.1477C66.6405 24.1461 66.9297 24.0233 67.1673 23.7736L74.3248 16.441C74.5303 16.2355 74.6412 15.9813 74.6412 15.6837C74.6412 15.0696 74.1646 14.5853 73.5557 14.5853C73.2581 14.5853 72.9809 14.7047 72.7687 14.9143L65.8606 21.9991H66.7802L59.8654 14.9143C59.6592 14.7081 59.3838 14.5853 59.0768 14.5853C58.4661 14.5853 57.9912 15.0696 57.9912 15.6837C57.9912 15.9796 58.1038 16.2338 58.3059 16.4487L65.4668 23.7736C65.7198 24.0267 65.9953 24.1477 66.3209 24.1477Z" fill="#62B2A1"/>
</svg>
