<svg width="38" height="38" viewBox="0 0 38 38" fill="none" xmlns="http://www.w3.org/2000/svg">
<path d="M18.9941 37.9882C29.4003 37.9882 37.9915 29.3853 37.9915 18.9941C37.9915 8.58794 29.3853 0 18.9791 0C8.59126 0 0 8.58794 0 18.9941C0 29.3853 8.60633 37.9882 18.9941 37.9882Z" fill="#62B2A1"/>
<path d="M18.9804 34.8655C14.8722 34.8655 10.4969 33.1701 7.72656 30.1795C9.82171 27.0105 14.0237 25.1883 18.9804 25.1883C23.9004 25.1883 28.1359 26.9738 30.2526 30.1795C27.4639 33.1701 23.1038 34.8655 18.9804 34.8655ZM18.9804 22.0126C15.3903 21.9825 12.5873 18.9742 12.5873 15.0009C12.5689 11.2568 15.4187 8.11462 18.9804 8.11462C22.5605 8.11462 25.3769 11.2568 25.3769 15.0009C25.3769 18.9742 22.5889 22.0429 18.9804 22.0126Z" fill="white"/>
</svg>
