<svg width="55" height="80" viewBox="0 0 55 80" fill="none" xmlns="http://www.w3.org/2000/svg">
<path d="M20.4269 0.152374C19.0046 0.355549 16.8322 1.02759 15.4256 1.684C13.472 2.6061 11.8154 3.77826 10.19 5.45055C7.32991 8.35751 5.65763 11.8896 5.18877 15.9219C5.09499 16.7189 5.03248 25.8149 5.03248 38.7556V60.2452L4.57924 60.5734C3.76654 61.1829 2.17241 63.3397 1.48474 64.7619C0.234432 67.3719 0.140659 67.9502 0.0625153 73.8579L0 79.0623L0.468865 79.5311C0.734554 79.7812 1.09402 80 1.28156 80C1.81294 80 2.51624 79.5624 2.61001 79.1717C2.64127 78.9841 2.70379 76.6085 2.73504 73.9048C2.79756 68.3878 2.84444 68.0596 3.93846 65.8559C5.00122 63.6679 6.6735 62.0112 8.86154 60.9172C10.5182 60.1045 11.4716 59.8545 13.644 59.6982C14.6442 59.62 15.7382 59.4637 16.0977 59.3543C16.4571 59.2449 16.7853 59.198 16.8322 59.2449C16.8791 59.2918 17.598 63.8085 18.442 69.2943C19.958 79.1092 19.9893 79.2811 20.4112 79.6405C20.6457 79.8281 20.9739 80 21.1458 80C21.6928 80 22.3648 79.5468 22.4742 79.1092C22.5524 78.8591 22.0835 75.4208 21.3177 70.4821C20.63 65.9653 20.083 62.2457 20.1143 62.2144C20.1455 62.1831 21.599 63.2772 23.3338 64.6369C26.0845 66.7624 26.6002 67.1062 27.0691 67.1062C27.538 67.1062 27.9443 66.8562 29.4134 65.7153C32.336 63.4491 32.5079 63.2303 32.1954 62.3238C31.9922 61.7143 31.1951 61.3236 30.6012 61.558C30.3824 61.6361 29.5228 62.23 28.6945 62.8864C27.8662 63.5429 27.0847 64.043 26.9753 63.9961C26.8659 63.9492 25.1155 62.6364 23.0838 61.0735C20.7707 59.2762 19.411 58.1197 19.411 57.9477C19.411 57.7915 19.8017 57.1507 20.2706 56.5255C21.1458 55.369 21.6772 54.2281 21.9116 52.9934C21.9741 52.6183 22.0679 52.2901 22.0991 52.2432C22.146 52.212 22.6618 52.2901 23.2557 52.4464C24.084 52.6652 24.9748 52.7121 27.1473 52.7121C29.6791 52.7121 30.1167 52.6652 31.4921 52.2901C34.5709 51.4618 37.3685 49.852 39.6503 47.5702C41.7133 45.5072 43.1355 43.2254 44.0107 40.5372C44.7766 38.1617 44.886 36.9895 44.886 30.9411C44.886 24.5958 44.9328 24.8772 43.5888 24.4239C40.4943 23.4081 37.5248 20.798 36.3683 18.0317C35.9775 17.0784 35.5556 16.7033 34.8679 16.7033C34.3209 16.7033 34.1959 16.7971 33.1175 18.063C29.8042 21.9389 26.4283 24.6271 22.3023 26.6276C19.9424 27.7841 18.1763 28.4249 15.6601 29.0501C14.2535 29.4095 13.7846 29.5971 13.5189 29.9096C13.0188 30.4723 13.0657 31.0193 13.6283 31.5819C14.0659 32.0195 14.1753 32.0508 14.863 31.957C17.7074 31.5819 22.568 29.7065 25.9751 27.6747C28.8039 25.9868 31.8515 23.5331 33.6645 21.5013L34.6022 20.4542L35.3524 21.5013C36.7902 23.5487 38.9158 25.3148 41.1819 26.315L42.2134 26.7839L42.2291 31.4882C42.2291 36.5519 42.104 37.8491 41.4007 39.9121C40.338 43.0222 38.2281 45.7729 35.4618 47.6327C34.3209 48.3985 32.3204 49.305 30.82 49.7114C28.8977 50.2271 25.2405 50.2271 23.3182 49.7114C16.7697 47.9297 12.3937 42.5221 11.956 35.6298C11.8466 33.8012 11.6122 33.348 10.7057 33.1761C10.2838 33.0979 10.1275 33.1604 9.72112 33.5512C9.28352 34.0044 9.25226 34.0982 9.25226 35.2703C9.25226 41.3968 12.925 47.5546 18.3795 50.5553C19.3328 51.0711 19.411 51.1492 19.411 51.6337C19.411 53.0872 18.442 54.9001 17.1448 55.9004C16.2071 56.6193 15.3319 56.885 13.3158 57.0413C11.4559 57.1819 9.95556 57.5101 8.50208 58.104L7.67375 58.4322L7.72064 37.052L7.76752 15.6874L8.20513 14.1245C9.84615 8.12307 14.8943 3.60634 20.8645 2.80927C22.4742 2.59047 31.8515 2.59047 33.4144 2.80927C36.7277 3.26251 39.6659 4.73162 42.0884 7.15408C44.042 9.10769 45.3236 11.3426 46.1206 14.2027L46.527 15.6874L46.6051 35.1922L46.6833 54.7126L47.0584 55.0095C47.6054 55.4471 48.2618 55.3846 48.8088 54.8532L49.262 54.4V35.7392C49.262 23.1111 49.1995 16.6408 49.0901 15.6874C48.1055 7.71672 41.7289 1.26202 33.727 0.152374C32.3048 -0.0508004 21.8022 -0.0508004 20.4269 0.152374Z" fill="#1A191E"/>
<path d="M33.6652 53.9936C32.8057 54.5875 32.9463 55.494 34.1341 56.9006L34.7905 57.682L33.1651 68.1846C32.1649 74.6862 31.5866 78.8278 31.6491 79.0935C31.7742 79.5468 32.4462 80 32.9932 80C33.1651 80 33.4933 79.8281 33.7278 79.6405C34.1497 79.2811 34.181 79.1092 35.697 69.2943C36.541 63.8085 37.2599 59.2918 37.2911 59.2449C37.338 59.2137 37.8069 59.2918 38.3539 59.4325C38.9165 59.5731 39.7917 59.6825 40.3388 59.6825C41.886 59.6825 43.5739 60.0889 45.1212 60.8547C47.5124 62.0269 49.0753 63.5741 50.2005 65.8559C51.2789 68.0283 51.3258 68.3722 51.4352 74.1705C51.5446 79.9219 51.5134 79.7656 52.5917 79.9531C53.0762 80.0313 53.2169 79.9687 53.6389 79.5468L54.139 79.0623L54.0765 73.8579C54.014 69.1692 53.9671 68.5441 53.6701 67.4188C53.2169 65.7465 52.1229 63.5741 51.0445 62.1831C48.622 59.0886 44.4022 57.0256 40.4794 57.0256C38.7915 57.0256 36.9942 56.1973 36.0565 54.9939C35.0718 53.728 34.4311 53.4623 33.6652 53.9936Z" fill="#1A191E"/>
</svg>
