<svg width="369" height="368" viewBox="0 0 369 368" fill="none" xmlns="http://www.w3.org/2000/svg">
<rect width="369" height="368" fill="#CDCDCD"/>
<g filter="url(#filter0_d_0_1)">
<g clip-path="url(#clip0_0_1)">
<rect x="-116" width="485" height="619" rx="10" fill="white"/>
<path d="M220.434 366.868C341.202 366.868 440.906 267.027 440.906 146.434C440.906 25.6664 341.027 -74 220.259 -74C99.7048 -74 0 25.6664 0 146.434C0 267.027 99.8798 366.868 220.434 366.868Z" fill="#E48867"/>
<path d="M150.38 236.751C139.142 236.751 130.423 227.819 130.423 216.544C130.423 211.31 132.437 206.215 136.313 202.553L184.932 153.714C188.821 149.808 188.815 143.49 184.918 139.591L136.313 90.9528C132.437 87.1157 130.423 82.1948 130.423 76.9238C130.423 65.4728 139.142 56.9284 150.38 56.9284C156.133 56.9284 160.627 58.8659 164.541 62.6047L213.387 111.298C217.283 115.182 223.586 115.189 227.491 111.313L276.748 62.4297C280.836 58.3409 285.33 56.5784 290.908 56.5784C302.145 56.5784 311.041 65.2977 311.041 76.5738C311.041 81.9813 309.24 86.5525 304.975 90.7778L256.239 139.582C252.341 143.485 252.34 149.807 256.236 153.712L304.8 202.378C308.85 206.04 310.866 211.135 310.866 216.544C310.866 227.819 301.971 236.751 290.558 236.751C284.806 236.751 279.787 234.814 276.008 230.862L227.522 182.323C223.609 178.407 217.26 178.414 213.356 182.339L165.104 230.862C161.152 234.814 156.133 236.751 150.38 236.751Z" fill="white"/>
</g>
</g>
<defs>
<filter id="filter0_d_0_1" x="-176" y="-20" width="565" height="699" filterUnits="userSpaceOnUse" color-interpolation-filters="sRGB">
<feFlood flood-opacity="0" result="BackgroundImageFix"/>
<feColorMatrix in="SourceAlpha" type="matrix" values="0 0 0 0 0 0 0 0 0 0 0 0 0 0 0 0 0 0 127 0" result="hardAlpha"/>
<feOffset dx="-20" dy="20"/>
<feGaussianBlur stdDeviation="20"/>
<feComposite in2="hardAlpha" operator="out"/>
<feColorMatrix type="matrix" values="0 0 0 0 0.695833 0 0 0 0 0.668093 0 0 0 0 0.658142 0 0 0 0.48 0"/>
<feBlend mode="normal" in2="BackgroundImageFix" result="effect1_dropShadow_0_1"/>
<feBlend mode="normal" in="SourceGraphic" in2="effect1_dropShadow_0_1" result="shape"/>
</filter>
<clipPath id="clip0_0_1">
<rect x="-116" width="485" height="619" rx="10" fill="white"/>
</clipPath>
</defs>
</svg>
