<svg width="296" height="66" viewBox="0 0 296 66" fill="none" xmlns="http://www.w3.org/2000/svg">
<path d="M103.216 50.2727V51.6364H98.4489V50.2727H103.216ZM99.7273 48.1818H101.426V56.4375C101.426 56.767 101.475 57.0152 101.574 57.1818C101.672 57.3447 101.799 57.4564 101.955 57.517C102.114 57.5739 102.286 57.6023 102.472 57.6023C102.608 57.6023 102.727 57.5928 102.83 57.5739C102.932 57.5549 103.011 57.5398 103.068 57.5284L103.375 58.9318C103.277 58.9697 103.136 59.0076 102.955 59.0455C102.773 59.0871 102.545 59.1098 102.273 59.1136C101.826 59.1212 101.409 59.0417 101.023 58.875C100.636 58.7083 100.324 58.4508 100.085 58.1023C99.8466 57.7538 99.7273 57.3163 99.7273 56.7898V48.1818ZM108.678 59.1761C107.859 59.1761 107.145 58.9886 106.536 58.6136C105.926 58.2386 105.452 57.714 105.115 57.0398C104.778 56.3655 104.609 55.5777 104.609 54.6761C104.609 53.7708 104.778 52.9792 105.115 52.3011C105.452 51.6231 105.926 51.0966 106.536 50.7216C107.145 50.3466 107.859 50.1591 108.678 50.1591C109.496 50.1591 110.21 50.3466 110.82 50.7216C111.429 51.0966 111.903 51.6231 112.24 52.3011C112.577 52.9792 112.746 53.7708 112.746 54.6761C112.746 55.5777 112.577 56.3655 112.24 57.0398C111.903 57.714 111.429 58.2386 110.82 58.6136C110.21 58.9886 109.496 59.1761 108.678 59.1761ZM108.683 57.75C109.214 57.75 109.653 57.6098 110.001 57.3295C110.35 57.0492 110.607 56.6761 110.774 56.2102C110.945 55.7443 111.03 55.2311 111.03 54.6705C111.03 54.1136 110.945 53.6023 110.774 53.1364C110.607 52.6667 110.35 52.2898 110.001 52.0057C109.653 51.7216 109.214 51.5795 108.683 51.5795C108.149 51.5795 107.706 51.7216 107.354 52.0057C107.005 52.2898 106.746 52.6667 106.575 53.1364C106.409 53.6023 106.325 54.1136 106.325 54.6705C106.325 55.2311 106.409 55.7443 106.575 56.2102C106.746 56.6761 107.005 57.0492 107.354 57.3295C107.706 57.6098 108.149 57.75 108.683 57.75ZM118.876 59V50.2727H120.507V51.6932H120.615C120.797 51.2121 121.094 50.8371 121.507 50.5682C121.92 50.2955 122.414 50.1591 122.99 50.1591C123.573 50.1591 124.062 50.2955 124.456 50.5682C124.854 50.8409 125.147 51.2159 125.337 51.6932H125.428C125.636 51.2273 125.967 50.8561 126.422 50.5795C126.876 50.2992 127.418 50.1591 128.047 50.1591C128.839 50.1591 129.484 50.4072 129.984 50.9034C130.488 51.3996 130.74 52.1477 130.74 53.1477V59H129.041V53.3068C129.041 52.7159 128.88 52.2879 128.558 52.0227C128.236 51.7576 127.852 51.625 127.405 51.625C126.852 51.625 126.422 51.7955 126.115 52.1364C125.808 52.4735 125.655 52.9072 125.655 53.4375V59H123.962V53.1989C123.962 52.7254 123.814 52.3447 123.518 52.0568C123.223 51.7689 122.839 51.625 122.365 51.625C122.043 51.625 121.746 51.7102 121.473 51.8807C121.204 52.0473 120.986 52.2803 120.82 52.5795C120.657 52.8788 120.575 53.2254 120.575 53.6193V59H118.876ZM135.557 59.1932C135.004 59.1932 134.504 59.0909 134.057 58.8864C133.61 58.678 133.256 58.3769 132.994 57.983C132.737 57.589 132.608 57.1061 132.608 56.5341C132.608 56.0417 132.703 55.6364 132.892 55.3182C133.081 55 133.337 54.7481 133.659 54.5625C133.981 54.3769 134.341 54.2367 134.739 54.142C135.136 54.0473 135.542 53.9754 135.955 53.9261C136.477 53.8655 136.902 53.8163 137.227 53.7784C137.553 53.7367 137.79 53.6705 137.938 53.5795C138.085 53.4886 138.159 53.3409 138.159 53.1364V53.0966C138.159 52.6004 138.019 52.2159 137.739 51.9432C137.462 51.6705 137.049 51.5341 136.5 51.5341C135.928 51.5341 135.477 51.661 135.148 51.9148C134.822 52.1648 134.597 52.4432 134.472 52.75L132.875 52.3864C133.064 51.8561 133.341 51.428 133.705 51.1023C134.072 50.7727 134.494 50.5341 134.972 50.3864C135.449 50.2348 135.951 50.1591 136.477 50.1591C136.826 50.1591 137.195 50.2008 137.585 50.2841C137.979 50.3636 138.347 50.5114 138.688 50.7273C139.032 50.9432 139.314 51.2519 139.534 51.6534C139.754 52.0511 139.864 52.5682 139.864 53.2045V59H138.205V57.8068H138.136C138.027 58.0265 137.862 58.2424 137.642 58.4545C137.422 58.6667 137.14 58.8428 136.795 58.983C136.451 59.1231 136.038 59.1932 135.557 59.1932ZM135.926 57.8295C136.396 57.8295 136.797 57.7367 137.131 57.5511C137.468 57.3655 137.723 57.1231 137.898 56.8239C138.076 56.5208 138.165 56.197 138.165 55.8523V54.7273C138.104 54.7879 137.987 54.8447 137.812 54.8977C137.642 54.947 137.447 54.9905 137.227 55.0284C137.008 55.0625 136.794 55.0947 136.585 55.125C136.377 55.1515 136.203 55.1742 136.062 55.1932C135.733 55.2348 135.432 55.3049 135.159 55.4034C134.89 55.5019 134.674 55.6439 134.511 55.8295C134.352 56.0114 134.273 56.2538 134.273 56.5568C134.273 56.9773 134.428 57.2955 134.739 57.5114C135.049 57.7235 135.445 57.8295 135.926 57.8295ZM143.689 56.0398L143.678 53.9659H143.973L147.45 50.2727H149.484L145.518 54.4773H145.251L143.689 56.0398ZM142.126 59V47.3636H143.825V59H142.126ZM147.638 59L144.513 54.8523L145.683 53.6648L149.723 59H147.638ZM154.435 59.1761C153.575 59.1761 152.834 58.9924 152.213 58.625C151.596 58.2538 151.118 57.733 150.781 57.0625C150.448 56.3883 150.281 55.5985 150.281 54.6932C150.281 53.7992 150.448 53.0114 150.781 52.3295C151.118 51.6477 151.588 51.1155 152.19 50.733C152.796 50.3504 153.505 50.1591 154.315 50.1591C154.808 50.1591 155.285 50.2405 155.747 50.4034C156.209 50.5663 156.624 50.822 156.991 51.1705C157.359 51.5189 157.649 51.9716 157.861 52.5284C158.073 53.0814 158.179 53.7538 158.179 54.5455V55.1477H151.241V53.875H156.514C156.514 53.428 156.423 53.0322 156.241 52.6875C156.06 52.339 155.804 52.0644 155.474 51.8636C155.149 51.6629 154.766 51.5625 154.327 51.5625C153.849 51.5625 153.433 51.6799 153.077 51.9148C152.724 52.1458 152.452 52.4489 152.259 52.8239C152.069 53.1951 151.974 53.5985 151.974 54.0341V55.0284C151.974 55.6117 152.077 56.108 152.281 56.517C152.49 56.9261 152.779 57.2386 153.151 57.4545C153.522 57.6667 153.955 57.7727 154.452 57.7727C154.774 57.7727 155.067 57.7273 155.332 57.6364C155.598 57.5417 155.827 57.4015 156.02 57.2159C156.213 57.0303 156.361 56.8011 156.463 56.5284L158.071 56.8182C157.942 57.2917 157.711 57.7064 157.378 58.0625C157.048 58.4148 156.634 58.6894 156.134 58.8864C155.637 59.0795 155.071 59.1761 154.435 59.1761ZM170.838 52.4034L169.298 52.6761C169.234 52.4792 169.132 52.2917 168.991 52.1136C168.855 51.9356 168.67 51.7898 168.435 51.6761C168.2 51.5625 167.906 51.5057 167.554 51.5057C167.073 51.5057 166.671 51.6136 166.349 51.8295C166.027 52.0417 165.866 52.3163 165.866 52.6534C165.866 52.9451 165.974 53.1799 166.19 53.358C166.406 53.536 166.755 53.6818 167.236 53.7955L168.622 54.1136C169.425 54.2992 170.024 54.5852 170.418 54.9716C170.812 55.358 171.009 55.8598 171.009 56.4773C171.009 57 170.857 57.4659 170.554 57.875C170.255 58.2803 169.836 58.5985 169.298 58.8295C168.764 59.0606 168.145 59.1761 167.44 59.1761C166.463 59.1761 165.666 58.9678 165.048 58.5511C164.431 58.1307 164.052 57.5341 163.912 56.7614L165.554 56.5114C165.656 56.9394 165.866 57.2633 166.185 57.483C166.503 57.6989 166.918 57.8068 167.429 57.8068C167.986 57.8068 168.431 57.6913 168.764 57.4602C169.098 57.2254 169.264 56.9394 169.264 56.6023C169.264 56.3295 169.162 56.1004 168.957 55.9148C168.757 55.7292 168.448 55.589 168.031 55.4943L166.554 55.1705C165.74 54.9848 165.137 54.6894 164.747 54.2841C164.361 53.8788 164.168 53.3655 164.168 52.7443C164.168 52.2292 164.312 51.7784 164.599 51.392C164.887 51.0057 165.285 50.7045 165.793 50.4886C166.3 50.2689 166.882 50.1591 167.537 50.1591C168.48 50.1591 169.223 50.3636 169.764 50.7727C170.306 51.178 170.664 51.7216 170.838 52.4034ZM178.405 55.3807V50.2727H180.109V59H178.439V57.4886H178.348C178.147 57.9545 177.825 58.3428 177.382 58.6534C176.943 58.9602 176.395 59.1136 175.74 59.1136C175.179 59.1136 174.683 58.9905 174.251 58.7443C173.823 58.4943 173.486 58.125 173.24 57.6364C172.998 57.1477 172.876 56.5436 172.876 55.8239V50.2727H174.575V55.6193C174.575 56.214 174.74 56.6875 175.07 57.0398C175.399 57.392 175.827 57.5682 176.354 57.5682C176.672 57.5682 176.988 57.4886 177.303 57.3295C177.621 57.1705 177.884 56.9299 178.092 56.608C178.304 56.286 178.409 55.8769 178.405 55.3807ZM182.392 59V50.2727H184.034V51.6591H184.125C184.284 51.1894 184.564 50.8201 184.966 50.5511C185.371 50.2784 185.83 50.142 186.341 50.142C186.447 50.142 186.572 50.1458 186.716 50.1534C186.864 50.161 186.979 50.1705 187.062 50.1818V51.8068C186.994 51.7879 186.873 51.767 186.699 51.7443C186.525 51.7178 186.35 51.7045 186.176 51.7045C185.775 51.7045 185.417 51.7898 185.102 51.9602C184.792 52.1269 184.545 52.3598 184.364 52.6591C184.182 52.9545 184.091 53.2917 184.091 53.6705V59H182.392ZM191.982 59.1761C191.122 59.1761 190.381 58.9924 189.76 58.625C189.143 58.2538 188.665 57.733 188.328 57.0625C187.995 56.3883 187.828 55.5985 187.828 54.6932C187.828 53.7992 187.995 53.0114 188.328 52.3295C188.665 51.6477 189.135 51.1155 189.737 50.733C190.343 50.3504 191.052 50.1591 191.862 50.1591C192.355 50.1591 192.832 50.2405 193.294 50.4034C193.756 50.5663 194.171 50.822 194.538 51.1705C194.906 51.5189 195.196 51.9716 195.408 52.5284C195.62 53.0814 195.726 53.7538 195.726 54.5455V55.1477H188.788V53.875H194.061C194.061 53.428 193.97 53.0322 193.788 52.6875C193.607 52.339 193.351 52.0644 193.021 51.8636C192.696 51.6629 192.313 51.5625 191.874 51.5625C191.396 51.5625 190.98 51.6799 190.624 51.9148C190.271 52.1458 189.999 52.4489 189.805 52.8239C189.616 53.1951 189.521 53.5985 189.521 54.0341V55.0284C189.521 55.6117 189.624 56.108 189.828 56.517C190.036 56.9261 190.326 57.2386 190.697 57.4545C191.069 57.6667 191.502 57.7727 191.999 57.7727C192.321 57.7727 192.614 57.7273 192.879 57.6364C193.144 57.5417 193.374 57.4015 193.567 57.2159C193.76 57.0303 193.908 56.8011 194.01 56.5284L195.618 56.8182C195.489 57.2917 195.258 57.7064 194.925 58.0625C194.595 58.4148 194.18 58.6894 193.68 58.8864C193.184 59.0795 192.618 59.1761 191.982 59.1761ZM205.521 59.1761C204.703 59.1761 203.989 58.9886 203.379 58.6136C202.769 58.2386 202.296 57.714 201.959 57.0398C201.622 56.3655 201.453 55.5777 201.453 54.6761C201.453 53.7708 201.622 52.9792 201.959 52.3011C202.296 51.6231 202.769 51.0966 203.379 50.7216C203.989 50.3466 204.703 50.1591 205.521 50.1591C206.339 50.1591 207.054 50.3466 207.663 50.7216C208.273 51.0966 208.747 51.6231 209.084 52.3011C209.421 52.9792 209.589 53.7708 209.589 54.6761C209.589 55.5777 209.421 56.3655 209.084 57.0398C208.747 57.714 208.273 58.2386 207.663 58.6136C207.054 58.9886 206.339 59.1761 205.521 59.1761ZM205.527 57.75C206.057 57.75 206.497 57.6098 206.845 57.3295C207.194 57.0492 207.451 56.6761 207.618 56.2102C207.788 55.7443 207.874 55.2311 207.874 54.6705C207.874 54.1136 207.788 53.6023 207.618 53.1364C207.451 52.6667 207.194 52.2898 206.845 52.0057C206.497 51.7216 206.057 51.5795 205.527 51.5795C204.993 51.5795 204.55 51.7216 204.197 52.0057C203.849 52.2898 203.589 52.6667 203.419 53.1364C203.252 53.6023 203.169 54.1136 203.169 54.6705C203.169 55.2311 203.252 55.7443 203.419 56.2102C203.589 56.6761 203.849 57.0492 204.197 57.3295C204.55 57.6098 204.993 57.75 205.527 57.75ZM215.639 50.2727V51.6364H210.707V50.2727H215.639ZM212.06 59V49.2614C212.06 48.7159 212.179 48.2633 212.418 47.9034C212.656 47.5398 212.973 47.2689 213.366 47.0909C213.76 46.9091 214.188 46.8182 214.651 46.8182C214.991 46.8182 215.283 46.8466 215.526 46.9034C215.768 46.9564 215.948 47.0057 216.065 47.0511L215.668 48.4261C215.588 48.4034 215.486 48.3769 215.361 48.3466C215.236 48.3125 215.084 48.2955 214.906 48.2955C214.493 48.2955 214.198 48.3977 214.02 48.6023C213.846 48.8068 213.759 49.1023 213.759 49.4886V59H212.06ZM225.7 50.2727V51.6364H220.933V50.2727H225.7ZM222.212 48.1818H223.911V56.4375C223.911 56.767 223.96 57.0152 224.058 57.1818C224.157 57.3447 224.284 57.4564 224.439 57.517C224.598 57.5739 224.77 57.6023 224.956 57.6023C225.092 57.6023 225.212 57.5928 225.314 57.5739C225.416 57.5549 225.496 57.5398 225.553 57.5284L225.859 58.9318C225.761 58.9697 225.621 59.0076 225.439 59.0455C225.257 59.0871 225.03 59.1098 224.757 59.1136C224.31 59.1212 223.893 59.0417 223.507 58.875C223.121 58.7083 222.808 58.4508 222.57 58.1023C222.331 57.7538 222.212 57.3163 222.212 56.7898V48.1818ZM229.466 53.8182V59H227.767V47.3636H229.443V51.6932H229.551C229.756 51.2235 230.068 50.8504 230.489 50.5739C230.909 50.2973 231.458 50.1591 232.136 50.1591C232.735 50.1591 233.258 50.2822 233.705 50.5284C234.155 50.7746 234.504 51.142 234.75 51.6307C235 52.1155 235.125 52.7216 235.125 53.4489V59H233.426V53.6534C233.426 53.0133 233.261 52.517 232.932 52.1648C232.602 51.8087 232.144 51.6307 231.557 51.6307C231.155 51.6307 230.795 51.7159 230.477 51.8864C230.163 52.0568 229.915 52.3068 229.733 52.6364C229.555 52.9621 229.466 53.3561 229.466 53.8182ZM241.153 59.1761C240.294 59.1761 239.553 58.9924 238.932 58.625C238.314 58.2538 237.837 57.733 237.5 57.0625C237.167 56.3883 237 55.5985 237 54.6932C237 53.7992 237.167 53.0114 237.5 52.3295C237.837 51.6477 238.307 51.1155 238.909 50.733C239.515 50.3504 240.223 50.1591 241.034 50.1591C241.527 50.1591 242.004 50.2405 242.466 50.4034C242.928 50.5663 243.343 50.822 243.71 51.1705C244.078 51.5189 244.367 51.9716 244.58 52.5284C244.792 53.0814 244.898 53.7538 244.898 54.5455V55.1477H237.96V53.875H243.233C243.233 53.428 243.142 53.0322 242.96 52.6875C242.778 52.339 242.523 52.0644 242.193 51.8636C241.867 51.6629 241.485 51.5625 241.045 51.5625C240.568 51.5625 240.152 51.6799 239.795 51.9148C239.443 52.1458 239.17 52.4489 238.977 52.8239C238.788 53.1951 238.693 53.5985 238.693 54.0341V55.0284C238.693 55.6117 238.795 56.108 239 56.517C239.208 56.9261 239.498 57.2386 239.869 57.4545C240.241 57.6667 240.674 57.7727 241.17 57.7727C241.492 57.7727 241.786 57.7273 242.051 57.6364C242.316 57.5417 242.545 57.4015 242.739 57.2159C242.932 57.0303 243.08 56.8011 243.182 56.5284L244.79 56.8182C244.661 57.2917 244.43 57.7064 244.097 58.0625C243.767 58.4148 243.352 58.6894 242.852 58.8864C242.356 59.0795 241.79 59.1761 241.153 59.1761ZM252.716 53.8182V59H251.017V50.2727H252.648V51.6932H252.756C252.956 51.2311 253.271 50.8598 253.699 50.5795C254.131 50.2992 254.674 50.1591 255.33 50.1591C255.924 50.1591 256.445 50.2841 256.892 50.5341C257.339 50.7803 257.686 51.1477 257.932 51.6364C258.178 52.125 258.301 52.7292 258.301 53.4489V59H256.602V53.6534C256.602 53.0208 256.438 52.5265 256.108 52.1705C255.778 51.8106 255.326 51.6307 254.75 51.6307C254.356 51.6307 254.006 51.7159 253.699 51.8864C253.396 52.0568 253.155 52.3068 252.977 52.6364C252.803 52.9621 252.716 53.3561 252.716 53.8182ZM264.341 59.1761C263.481 59.1761 262.741 58.9924 262.119 58.625C261.502 58.2538 261.025 57.733 260.688 57.0625C260.354 56.3883 260.188 55.5985 260.188 54.6932C260.188 53.7992 260.354 53.0114 260.688 52.3295C261.025 51.6477 261.494 51.1155 262.097 50.733C262.703 50.3504 263.411 50.1591 264.222 50.1591C264.714 50.1591 265.191 50.2405 265.653 50.4034C266.116 50.5663 266.53 50.822 266.898 51.1705C267.265 51.5189 267.555 51.9716 267.767 52.5284C267.979 53.0814 268.085 53.7538 268.085 54.5455V55.1477H261.148V53.875H266.42C266.42 53.428 266.33 53.0322 266.148 52.6875C265.966 52.339 265.71 52.0644 265.381 51.8636C265.055 51.6629 264.672 51.5625 264.233 51.5625C263.756 51.5625 263.339 51.6799 262.983 51.9148C262.631 52.1458 262.358 52.4489 262.165 52.8239C261.975 53.1951 261.881 53.5985 261.881 54.0341V55.0284C261.881 55.6117 261.983 56.108 262.188 56.517C262.396 56.9261 262.686 57.2386 263.057 57.4545C263.428 57.6667 263.862 57.7727 264.358 57.7727C264.68 57.7727 264.973 57.7273 265.239 57.6364C265.504 57.5417 265.733 57.4015 265.926 57.2159C266.119 57.0303 266.267 56.8011 266.369 56.5284L267.977 56.8182C267.848 57.2917 267.617 57.7064 267.284 58.0625C266.955 58.4148 266.54 58.6894 266.04 58.8864C265.544 59.0795 264.977 59.1761 264.341 59.1761ZM271.847 59L269.278 50.2727H271.034L272.744 56.6818H272.83L274.545 50.2727H276.301L278.006 56.6534H278.091L279.79 50.2727H281.545L278.983 59H277.25L275.477 52.6989H275.347L273.574 59H271.847ZM289.697 52.4034L288.158 52.6761C288.093 52.4792 287.991 52.2917 287.851 52.1136C287.714 51.9356 287.529 51.7898 287.294 51.6761C287.059 51.5625 286.766 51.5057 286.413 51.5057C285.932 51.5057 285.531 51.6136 285.209 51.8295C284.887 52.0417 284.726 52.3163 284.726 52.6534C284.726 52.9451 284.834 53.1799 285.05 53.358C285.266 53.536 285.614 53.6818 286.095 53.7955L287.482 54.1136C288.285 54.2992 288.883 54.5852 289.277 54.9716C289.671 55.358 289.868 55.8598 289.868 56.4773C289.868 57 289.716 57.4659 289.413 57.875C289.114 58.2803 288.696 58.5985 288.158 58.8295C287.624 59.0606 287.004 59.1761 286.3 59.1761C285.322 59.1761 284.525 58.9678 283.908 58.5511C283.29 58.1307 282.911 57.5341 282.771 56.7614L284.413 56.5114C284.516 56.9394 284.726 57.2633 285.044 57.483C285.362 57.6989 285.777 57.8068 286.288 57.8068C286.845 57.8068 287.29 57.6913 287.624 57.4602C287.957 57.2254 288.124 56.9394 288.124 56.6023C288.124 56.3295 288.021 56.1004 287.817 55.9148C287.616 55.7292 287.307 55.589 286.891 55.4943L285.413 55.1705C284.599 54.9848 283.997 54.6894 283.607 54.2841C283.22 53.8788 283.027 53.3655 283.027 52.7443C283.027 52.2292 283.171 51.7784 283.459 51.392C283.747 51.0057 284.144 50.7045 284.652 50.4886C285.16 50.2689 285.741 50.1591 286.396 50.1591C287.339 50.1591 288.082 50.3636 288.624 50.7727C289.165 51.178 289.523 51.7216 289.697 52.4034ZM293.878 47.3636L293.73 55.6534H292.156L292.009 47.3636H293.878ZM292.946 59.108C292.632 59.108 292.363 58.9981 292.139 58.7784C291.916 58.5549 291.806 58.286 291.81 57.9716C291.806 57.661 291.916 57.3958 292.139 57.1761C292.363 56.9527 292.632 56.8409 292.946 56.8409C293.253 56.8409 293.518 56.9527 293.741 57.1761C293.965 57.3958 294.079 57.661 294.082 57.9716C294.079 58.1799 294.024 58.3712 293.918 58.5455C293.815 58.7159 293.679 58.8523 293.509 58.9545C293.338 59.0568 293.151 59.108 292.946 59.108Z" fill="#E8F2EE" fill-opacity="0.7"/>
<path d="M79.7339 42.8437L84.1325 41.3272C85.5862 40.8247 86.3553 39.2533 85.8395 37.8282C85.3236 36.403 83.7292 35.6538 82.2661 36.1563L77.8675 37.6728C76.4138 38.1753 75.6447 39.7467 76.1605 41.1718C76.6764 42.597 78.2802 43.3462 79.7339 42.8437Z" fill="#E8F2EE"/>
<path d="M91.7128 63.8814L92.0121 63.7617C92.835 63.4342 93.2226 62.5462 92.869 61.7778L82.4159 38.9211C82.0622 38.1527 81.1101 37.7937 80.2872 38.1212L79.9879 38.2409C79.165 38.5684 78.7774 39.4565 79.131 40.2249L89.5841 63.0815C89.931 63.8499 90.8831 64.2026 91.7128 63.8814Z" fill="#E8F2EE"/>
<path d="M9.41602 42.9907V30.6978L0 13H7.72077L10.7519 20.2126C11.6641 22.3634 12.3182 23.9765 13.0553 25.9604H13.1474C13.8108 24.0878 14.5294 22.3356 15.3955 20.2126L18.399 13H26L16.1694 30.4753V43H9.41602V42.9907Z" fill="#E8F2EE"/>
<path d="M36.003 35.2936L33.917 43H27L36.0305 13H44.7865L54 43H46.7902L44.512 35.2936H36.003ZM43.5239 30.2396L41.6757 23.8593C41.1633 22.0881 40.6418 19.8346 40.1843 18.0819H40.0928C39.6628 19.8439 39.2145 22.1252 38.7387 23.8686L36.9729 30.2396H43.5239Z" fill="#E8F2EE"/>
<path d="M98 42.9815V13H105.951L112.222 24.0009C114.032 27.1427 115.796 30.8962 117.158 34.2882L117.28 34.279C116.86 30.3123 116.729 26.2808 116.729 21.7488V13.0093H123V42.9908H115.852L109.376 31.443C107.574 28.2085 105.596 24.3624 104.131 20.8499L103.982 20.8684C104.196 24.8443 104.28 29.089 104.28 33.9824V43H98V42.9815Z" fill="#E8F2EE"/>
<path d="M94 20.5C94 31.8218 84.8218 41 73.5 41C62.1782 41 53 31.8218 53 20.5C53 9.17816 62.1782 0 73.5 0C84.8218 0 94 9.17816 94 20.5ZM56.897 20.5C56.897 29.6696 64.3304 37.103 73.5 37.103C82.6696 37.103 90.103 29.6696 90.103 20.5C90.103 11.3304 82.6696 3.89696 73.5 3.89696C64.3304 3.89696 56.897 11.3304 56.897 20.5Z" fill="#E8F2EE"/>
</svg>
