<svg width="25" height="25" viewBox="0 0 25 25" fill="none" xmlns="http://www.w3.org/2000/svg">
<path d="M2.89359 17.2983L4.22718 14.7567C4.55319 14.1419 4.8921 13.7625 5.2439 13.7625C5.58609 13.7625 5.95593 14.1164 6.51421 14.8409C7.61554 16.2628 8.34328 16.9502 9.09117 16.9502C9.83249 16.9502 10.691 15.9105 10.691 15.1694C10.691 14.6855 10.0322 14.2134 10.0069 13.9641C10.0005 13.8574 10.0955 13.7913 10.2694 13.7913C11.9508 13.7913 13.4686 12.4041 13.4686 11.2462C13.4686 10.1693 12.3148 9.35859 12.3148 9.03327C12.3148 8.96718 12.367 8.91491 12.431 8.91491C12.5323 8.91491 12.656 9.02366 12.915 9.22827C14.2465 10.2987 14.9006 9.67476 15.0262 9.03116C15.0773 8.76702 15.2222 8.52398 15.8287 8.21273C17.0939 7.54827 18.2918 6.45515 18.2918 5.55163C18.2918 4.35749 16.717 3.86202 16.717 3.59343C16.717 3.42608 17.0932 3.27257 17.8104 3.08694L17.5005 1.87101C16.2427 2.19163 15.319 2.80194 15.319 3.52101C15.319 4.46062 17.0428 5.02077 17.0428 5.55163C17.0428 6.07382 16.0678 6.65156 15.3422 7.04999C14.0777 7.77538 14.1736 8.13093 14.0222 8.44992C13.7419 8.93507 13.1951 7.88109 12.2182 7.88109C11.6133 7.88109 11.1574 8.27507 11.1574 8.86734C11.1574 9.77601 12.2154 10.6261 12.2154 11.2462C12.2154 11.9815 11.3524 12.6616 9.90632 12.6616C9.08179 12.6616 8.62804 13.0334 8.62804 13.6788C8.62804 14.3084 9.38882 14.8964 9.38882 15.1948C9.38882 15.3963 9.23835 15.5895 9.11671 15.5895C8.88117 15.5895 8.33577 15.1252 7.50866 14.07C6.73218 13.0591 6.03116 12.5093 5.31632 12.5093C4.33593 12.5093 3.69046 13.2928 3.29554 14.0177L2.15132 16.1102L2.89359 17.2983ZM17.227 22.0652L18.2311 21.2965C17.708 20.6018 17.0421 19.5443 15.6138 19.5443C14.7373 19.5443 14.5868 19.8213 14.0156 19.8213C13.6957 19.8213 13.523 19.5441 13.3727 18.9164C13.23 18.3539 13.1862 17.9796 13.5178 17.8462C13.9291 17.6927 15.3471 17.5202 15.8297 16.0181C16.159 15.026 16.4606 14.6466 16.9936 14.6466C17.9487 14.6466 17.869 15.7024 19.0191 15.7024C19.5548 15.7024 19.8319 15.4776 20.1921 15.4776C20.6824 15.4776 21.015 15.9879 21.1003 17.1951L22.3556 16.7116C22.1627 15.1479 21.4118 14.2287 20.3498 14.2287C20.0677 14.2287 19.7203 14.2755 19.4123 14.381C19.0657 14.4952 18.9945 14.4738 18.7151 14.1476C18.2304 13.5968 17.8022 13.3934 17.13 13.3934C15.938 13.3934 15.172 13.9866 14.6137 15.6572C14.4795 16.0952 14.295 16.2349 13.5033 16.5354L13.0153 16.7112C12.0769 17.0691 11.8073 17.7593 12.1334 19.189C12.4263 20.445 13.0441 21.0862 13.9123 21.0862C14.674 21.0862 15.1247 20.8188 15.6138 20.8188C16.3331 20.7975 16.6699 21.277 17.227 22.0652ZM14.9081 11.4112C15.6635 11.4112 16.0012 10.7379 16.8483 10.4843C17.4066 10.3202 17.7091 9.75023 17.7091 9.26015C17.7091 8.86593 17.512 8.5282 17.0805 8.5282C16.6277 8.5282 16.208 8.87976 15.9288 9.47109C15.7807 9.80671 15.5229 9.97077 14.9081 10.1444C14.4202 10.2947 14.2465 10.4705 14.2465 10.8412C14.2465 11.2376 14.5566 11.4112 14.9081 11.4112ZM11.5118 16.7578C12.1755 16.7578 12.8255 15.9907 12.8255 15.3056C12.8255 14.4565 12.4739 14.0623 12.0701 14.0623C11.629 14.0623 11.3498 14.5854 11.3498 15.3738C11.3498 15.8287 10.9535 15.8426 10.9535 16.2954C10.9535 16.5745 11.1741 16.7578 11.5118 16.7578ZM9.5032 18.9108C10.0125 18.9108 10.3289 18.6455 10.3289 18.2236C10.3289 17.8997 10.0828 17.6887 9.73335 17.6887C8.33015 17.6887 8.27155 16.9003 7.59609 16.9003C7.2253 16.9003 6.96749 17.1209 6.96749 17.4448C6.96749 17.7005 7.2253 17.8997 7.57265 17.8997C8.31843 17.8997 7.96687 18.9108 9.5032 18.9108ZM12.105 24.21C18.7369 24.21 24.2121 18.7273 24.2121 12.105C24.2121 5.47312 18.7273 0 12.0954 0C5.47523 0 0 5.47312 0 12.105C0 18.7273 5.48484 24.21 12.105 24.21ZM12.105 22.3336C6.51233 22.3336 1.8785 17.6998 1.8785 12.105C1.8785 6.51023 6.50273 1.87639 12.0954 1.87639C17.6902 1.87639 22.3336 6.51023 22.3336 12.105C22.3336 17.6998 17.6998 22.3336 12.105 22.3336Z" fill="#8C8C8E"/>
</svg>
