<svg width="27" height="28" viewBox="0 0 27 28" fill="none" xmlns="http://www.w3.org/2000/svg">
<path d="M13.3003 8.67619L11.5203 10.4713C12.9258 10.6023 13.921 11.0509 14.6342 11.7641C16.628 13.7558 16.6205 16.565 14.6501 18.5354L10.7548 22.419C8.77275 24.399 5.98486 24.4065 3.99525 22.4244C2.00142 20.4231 2.00892 17.6352 3.98892 15.6531L6.00104 13.643C5.62651 12.7972 5.5044 11.7495 5.71135 10.8465L2.34408 14.1957C-0.530526 17.0694 -0.541308 21.155 2.3558 24.0521C5.26463 26.9631 9.34392 26.9438 12.2121 24.0756L16.2875 19.9927C19.1653 17.1149 19.1825 13.0335 16.2736 10.1363C15.5881 9.44869 14.6611 8.92557 13.3003 8.67619ZM12.2691 18.5518L14.0492 16.7567C12.6436 16.6353 11.6485 16.1792 10.9353 15.466C8.9436 13.4722 8.949 10.6651 10.9214 8.69469L14.8071 4.8111C16.7968 2.82899 19.5847 2.82149 21.5764 4.81321C23.5681 6.80493 23.551 9.60455 21.5806 11.5749L19.5706 13.585C19.943 14.4425 20.0555 15.4785 19.8603 16.3836L23.2275 13.0323C26.1 10.1586 26.1129 6.08259 23.2158 3.17588C20.3049 0.267052 16.2256 0.286271 13.3477 3.16416L9.28416 7.23525C6.40628 10.1131 6.38917 14.1945 9.29588 17.0916C9.98354 17.7793 10.9083 18.3024 12.2691 18.5518Z" fill="#8C8C8E"/>
</svg>
