<svg width="136" height="178" viewBox="0 0 136 178" fill="none" xmlns="http://www.w3.org/2000/svg">
<path d="M49.6639 89.9681L56.8394 94.7404L66.4561 80.0358L59.2806 75.2636L49.6639 89.9681Z" fill="#231F20"/>
<path d="M56.8322 95.3119C56.7219 95.3158 56.6135 95.2825 56.5245 95.2173L49.349 90.445C49.2869 90.4049 49.2333 90.3528 49.1914 90.2918C49.1495 90.2308 49.1201 90.1621 49.1049 90.0896C49.0897 90.0172 49.089 89.9425 49.1028 89.8697C49.1167 89.797 49.1448 89.7278 49.1856 89.666L58.8029 74.9043C58.8442 74.8401 58.8982 74.785 58.9615 74.7424C59.0248 74.6998 59.0962 74.6706 59.1713 74.6566C59.2435 74.6385 59.3188 74.6368 59.3918 74.6514C59.4648 74.6659 59.5336 74.6965 59.5933 74.741L66.7688 79.5132C66.831 79.5534 66.8846 79.6055 66.9265 79.6665C66.9684 79.7275 66.9978 79.7962 67.013 79.8686C67.0282 79.9411 67.0289 80.0158 67.015 80.0885C67.0012 80.1612 66.973 80.2305 66.9323 80.2922L57.315 95.054C57.276 95.1201 57.2226 95.1767 57.1589 95.2196C57.0951 95.2624 57.0226 95.2905 56.9466 95.3017L56.8322 95.3119ZM50.4523 89.8734L56.6741 94.0071L65.6639 80.2449L59.4421 76.1112L50.4523 89.8734Z" fill="#231F20"/>
<path d="M57.3185 79.4158L92.0111 26.3314L97.5062 29.9889" fill="#231F20"/>
<path d="M57.3107 79.9873C57.2018 79.9825 57.0959 79.95 57.0031 79.8927C56.8768 79.8094 56.7886 79.6794 56.758 79.5313C56.7274 79.3831 56.7568 79.2288 56.8398 79.1023L91.5323 26.0179C91.6141 25.8915 91.7423 25.8025 91.8893 25.7701C92.0393 25.7403 92.195 25.7707 92.3228 25.8546L97.8179 29.5121C97.9358 29.5989 98.0158 29.7275 98.0417 29.8716C98.0675 30.0156 98.037 30.1641 97.9566 30.2864C97.8762 30.4087 97.752 30.4954 97.6095 30.5288C97.467 30.5622 97.3172 30.5397 97.1908 30.4659L92.1726 27.1219L57.7935 79.7294C57.7427 79.8109 57.6713 79.8776 57.5866 79.9229C57.5019 79.9681 57.4068 79.9904 57.3107 79.9873Z" fill="#231F20"/>
<path d="M101.804 70.1888C111.154 55.3814 109.046 37.2597 97.0939 29.7128C85.1423 22.166 67.8738 28.0518 58.5237 42.8593C49.1735 57.6667 51.2825 75.7884 63.2341 83.3352C75.1857 90.8821 92.4542 84.9962 101.804 70.1888Z" fill="#231F20"/>
<path d="M74.6707 87.1965C70.3454 87.1902 66.1158 85.9231 62.4995 83.5502C50.4874 75.5616 48.6444 56.9438 58.3547 42.0344C63.7089 33.8475 71.6553 28.1565 80.1554 26.4037C83.155 25.7251 86.2597 25.6504 89.2884 26.1841C92.3171 26.7177 95.2093 27.849 97.7964 29.5119C109.808 37.5004 111.663 56.1184 101.941 71.0163C96.5869 79.2146 88.6406 84.9056 80.129 86.6583C78.3331 87.0263 76.5038 87.2067 74.6707 87.1965ZM59.3313 42.6617C49.9352 57.0371 51.6482 74.9563 63.138 82.5966C65.5917 84.1913 68.3424 85.2737 71.2249 85.7788C74.1074 86.2839 77.0622 86.2012 79.9119 85.5358C88.1256 83.8486 95.8073 78.3263 100.987 70.3892C110.384 56.0138 108.682 38.1061 97.1921 30.4659C94.7369 28.8696 91.9843 27.7863 89.0998 27.2812C86.2152 26.7761 83.2583 26.8595 80.4068 27.5265C72.1931 29.2138 64.523 34.7247 59.3313 42.6617V42.6617Z" fill="#231F20"/>
<path d="M97.0735 67.4796C106.508 52.6904 104.479 34.5284 92.5425 26.9134C80.6056 19.2985 63.2807 25.1144 53.8463 39.9035C44.4118 54.6926 46.4404 72.8547 58.3773 80.4696C70.3142 88.0845 87.639 82.2687 97.0735 67.4796Z" fill="white"/>
<path d="M69.1715 83.539C64.8463 83.5327 60.6166 82.2656 57.0004 79.8927C44.9883 71.9041 43.134 53.2747 52.8556 38.3768C58.2098 30.19 66.1561 24.499 74.6677 22.7462C77.6671 22.0644 80.7723 21.9882 83.8015 22.5219C86.8307 23.0556 89.723 24.1886 92.3087 25.8544C104.321 33.843 106.164 52.4609 96.4536 67.3589C91.1108 75.5459 83.1643 81.2483 74.6527 83.001C72.8493 83.3705 71.0123 83.5508 69.1715 83.539ZM80.2287 23.3408C78.4431 23.3135 76.6597 23.4752 74.9081 23.8233C66.6944 25.5105 59.0129 31.0213 53.8327 38.9585C44.4366 53.3338 46.1381 71.2529 57.628 78.8932C60.0831 80.4895 62.8357 81.5727 65.7203 82.0779C68.6049 82.583 71.5618 82.4995 74.4133 81.8325C82.627 80.1453 90.3086 74.6231 95.4888 66.6859C104.885 52.3106 103.172 34.4028 91.682 26.7625C88.2835 24.5211 84.2998 23.331 80.2287 23.3408V23.3408Z" fill="#231F20"/>
<path d="M91.7864 63.6846C99.1849 51.9678 97.5147 37.6276 88.0559 31.6549C78.5971 25.6821 64.9315 30.3385 57.533 42.0553C50.1344 53.772 51.8046 68.1122 61.2634 74.085C70.7222 80.0578 84.3878 75.4013 91.7864 63.6846Z" fill="url(#paint0_linear_1041_11827)"/>
<path d="M70.3151 77.252C66.8691 77.2488 63.4987 76.2408 60.6169 74.3514C51.0686 67.9886 49.5865 53.1811 57.3219 41.3378C61.223 35.0919 67.4306 30.6373 74.5967 28.9413C76.9821 28.3919 79.4532 28.324 81.8652 28.7414C84.2772 29.1588 86.5817 30.0533 88.6437 31.3723C98.2035 37.7238 99.6856 52.5313 91.9503 64.3745C88.0474 70.6187 81.8405 75.0728 74.6754 76.7711C73.2435 77.0877 71.7816 77.2489 70.3151 77.252ZM79.0712 29.5818C77.6639 29.5738 76.2598 29.7164 74.8829 30.0073C67.987 31.6334 62.0159 35.9246 58.2759 41.9421C50.8885 53.2974 52.2182 67.3603 61.2557 73.3749C63.1852 74.629 65.3484 75.48 67.6153 75.8766C69.8822 76.2733 72.2059 76.2073 74.4466 75.6827C81.3348 74.0532 87.2998 69.7674 91.0421 63.7593C98.4409 52.4041 97.1113 38.3298 88.0739 32.3152C85.404 30.5452 82.2745 29.595 79.0712 29.5818V29.5818Z" fill="#231F20"/>
<path d="M57.7986 41.6514C50.2258 53.2562 51.6204 67.6856 60.896 73.8741C61.5001 74.2765 62.1304 74.6381 62.7825 74.9567C55.0445 68.201 54.2786 54.8869 61.3631 44.0772C68.4477 33.2675 80.875 28.6973 90.0535 33.2158C89.5066 32.7405 88.9308 32.2994 88.3296 31.8949C79.0771 25.6723 65.3828 30.058 57.7986 41.6514Z" fill="#231F20"/>
<path d="M62.8106 75.5285C62.7237 75.5265 62.6382 75.5061 62.5597 75.4688C61.8867 75.1252 61.2376 74.7366 60.6169 74.3056C51.0685 67.9543 49.5864 53.1468 57.3219 41.2921C61.223 35.0462 67.4307 30.5915 74.5967 28.8955C76.9824 28.3494 79.4528 28.2831 81.8644 28.7004C84.2759 29.1178 86.5804 30.0105 88.6438 31.3266C89.2673 31.7419 89.8622 32.1987 90.4244 32.6938C90.5273 32.7854 90.5937 32.9111 90.6113 33.0477C90.6289 33.1843 90.5966 33.3227 90.5203 33.4374C90.444 33.5521 90.3288 33.6353 90.196 33.6719C90.0632 33.7084 89.9216 33.6957 89.7974 33.6362C80.6981 29.187 68.705 33.7732 61.8178 44.2991C54.9305 54.8251 55.5055 67.8057 63.1301 74.4687C63.2178 74.5452 63.28 74.6467 63.3085 74.7595C63.3369 74.8723 63.3302 74.9912 63.2894 75.1001C63.2485 75.209 63.1753 75.3029 63.0796 75.3691C62.984 75.4354 62.8704 75.4708 62.754 75.4708L62.8106 75.5285ZM79.0708 29.5818C77.6635 29.5744 76.2595 29.717 74.8825 30.0073C67.9887 31.6316 62.0205 35.9236 58.2869 41.9422C51.4111 52.4568 52.0667 65.3811 59.4406 71.9729C54.3506 64.5015 54.7533 53.1543 60.8749 43.7179C66.9965 34.2814 77.2435 29.4144 86.0729 31.2086C83.8875 30.1564 81.4963 29.6008 79.0708 29.5818V29.5818Z" fill="#231F20"/>
<path d="M22.3172 135.641L26.0639 138.137C26.5013 138.427 26.9919 138.627 27.5072 138.725C28.0225 138.824 28.5523 138.82 29.0659 138.712C29.5795 138.605 30.0666 138.397 30.4992 138.1C30.9317 137.803 31.301 137.423 31.5857 136.982L57.7881 96.8878C58.3765 96.0019 58.5925 94.9199 58.3893 93.876C58.1861 92.8321 57.5801 91.9101 56.7024 91.3095L52.9672 88.8133C52.5289 88.5233 52.0374 88.323 51.5212 88.2241C51.005 88.1252 50.4743 88.1295 49.9598 88.2369C49.4453 88.3443 48.9572 88.5525 48.5236 88.8497C48.0901 89.1468 47.7197 89.5269 47.4339 89.968L21.2316 130.062C20.6432 130.948 20.4272 132.03 20.6304 133.074C20.8335 134.118 21.4395 135.04 22.3172 135.641V135.641Z" fill="white"/>
<path d="M28.166 139.37C27.2938 139.357 26.4438 139.094 25.716 138.613L21.9694 136.117C21.4637 135.786 21.0287 135.358 20.6895 134.858C20.3503 134.357 20.1137 133.795 19.9933 133.203C19.8729 132.61 19.8711 132 19.9881 131.407C20.105 130.814 20.3384 130.25 20.6747 129.748L46.877 89.6536C47.5417 88.6412 48.5808 87.9339 49.7663 87.6868C50.9519 87.4397 52.187 87.673 53.2008 88.3356L56.936 90.8318C57.4416 91.1629 57.8766 91.5909 58.2158 92.0912C58.555 92.5915 58.7917 93.154 58.9121 93.7463C59.0325 94.3386 59.0342 94.9489 58.9173 95.5419C58.8003 96.1349 58.567 96.6988 58.2307 97.201L32.0283 137.295C31.6099 137.937 31.0369 138.463 30.3621 138.826C29.6872 139.189 28.932 139.376 28.166 139.37ZM22.5965 135.163L26.3431 137.66C27.0968 138.154 28.0149 138.332 28.8987 138.155C29.3414 138.063 29.7617 137.884 30.1351 137.629C30.5085 137.374 30.8278 137.047 31.0745 136.668L57.2769 96.5739C57.531 96.197 57.7077 95.7733 57.7966 95.3275C57.8856 94.8817 57.885 94.4227 57.7949 93.9771C57.7048 93.5316 57.527 93.1084 57.2719 92.7321C57.0168 92.3559 56.6894 92.0341 56.3088 91.7856L52.5622 89.2892C52.1906 89.0409 51.7731 88.8692 51.3343 88.7842C50.8955 88.6992 50.4442 88.7026 50.0067 88.7942C49.5639 88.8863 49.1437 89.065 48.7703 89.3201C48.3968 89.5752 48.0776 89.9017 47.8308 90.2807L21.6399 130.375C21.3852 130.751 21.2078 131.174 21.1181 131.62C21.0283 132.065 21.0279 132.524 21.1169 132.969C21.2059 133.415 21.3825 133.838 21.6365 134.215C21.8905 134.591 22.2168 134.914 22.5965 135.163Z" fill="#231F20"/>
<path d="M63.6891 52.5033C63.5372 52.5336 63.3795 52.5023 63.2507 52.4163C63.1219 52.3303 63.0325 52.1966 63.0022 52.0447C62.9719 51.8928 63.0033 51.7351 63.0893 51.6063C63.1753 51.4775 63.3089 51.3881 63.4608 51.3578L80.4239 43.7021C80.4916 43.6702 80.565 43.6523 80.6398 43.6493C80.7145 43.6462 80.7892 43.6582 80.8592 43.6845C80.9293 43.7108 80.9934 43.7509 81.0477 43.8023C81.102 43.8538 81.1455 43.9157 81.1755 43.9842C81.2075 44.0528 81.2257 44.127 81.2288 44.2026C81.232 44.2782 81.2201 44.3537 81.1938 44.4247C81.1676 44.4957 81.1275 44.5607 81.0759 44.6161C81.0243 44.6715 80.9622 44.716 80.8932 44.7472L63.9069 52.4484C63.8382 52.4799 63.7644 52.4985 63.6891 52.5033V52.5033Z" fill="#D1D3D4"/>
<path d="M77.4204 54.3481C77.2685 54.3799 77.1102 54.35 76.9803 54.2651C76.8504 54.1801 76.7596 54.047 76.7278 53.8951C76.696 53.7432 76.7259 53.5849 76.8108 53.455C76.8958 53.3251 77.0288 53.2343 77.1807 53.2025L91.8256 46.4259C91.9602 46.3835 92.1055 46.3913 92.2348 46.4479C92.364 46.5044 92.4683 46.6059 92.5284 46.7336C92.5885 46.8612 92.6003 47.0063 92.5616 47.1419C92.5229 47.2776 92.4362 47.3946 92.3178 47.4713L77.6725 54.2935C77.5952 54.3349 77.5079 54.3538 77.4204 54.3481V54.3481Z" fill="#D1D3D4"/>
<path d="M62.2243 69.1895C62.1178 69.1861 62.0141 69.1541 61.9242 69.0968C61.8343 69.0396 61.7614 68.9592 61.7132 68.8641C61.6808 68.7963 61.662 68.7227 61.6581 68.6476C61.6541 68.5724 61.665 68.4973 61.6902 68.4264C61.7154 68.3555 61.7543 68.2902 61.8047 68.2344C61.8551 68.1786 61.9161 68.1333 61.984 68.101L89.0508 55.0623C89.1189 55.0188 89.1954 54.9902 89.2754 54.9785C89.3554 54.9667 89.4369 54.972 89.5147 54.9941C89.5924 55.0162 89.6646 55.0545 89.7265 55.1065C89.7883 55.1586 89.8384 55.2231 89.8735 55.2959C89.9086 55.3687 89.9278 55.4482 89.9299 55.529C89.932 55.6098 89.917 55.6901 89.8858 55.7646C89.8546 55.8392 89.8079 55.9063 89.7488 55.9615C89.6898 56.0167 89.6197 56.0587 89.5432 56.0848L62.4764 69.1349C62.3971 69.1707 62.3112 69.1893 62.2243 69.1895Z" fill="#D1D3D4"/>
<path d="M60.3884 130.961L65.7616 143.121L48.495 151.77L34.2497 134.004C34.2497 134.004 46.145 112.579 48.84 111.297C51.5351 110.015 60.3884 130.961 60.3884 130.961Z" fill="white"/>
<path d="M48.4497 152.072C48.5057 152.08 48.5629 152.07 48.6129 152.044L65.8795 143.394C65.9448 143.362 65.9951 143.305 66.0197 143.236C66.0443 143.167 66.0413 143.092 66.0113 143.025L60.6438 130.866C60.3103 130.089 52.7207 112.303 49.4711 111.079C49.3481 111.025 49.2152 110.998 49.0811 110.999C48.9469 110.999 48.8143 111.028 48.6916 111.082C45.9624 112.406 34.4813 133.034 33.9931 133.911C33.9668 133.96 33.9555 134.016 33.9608 134.072C33.9661 134.127 33.9877 134.18 34.0228 134.223L48.2705 151.972C48.2923 152 48.3193 152.023 48.3501 152.04C48.3809 152.057 48.4147 152.068 48.4497 152.072V152.072ZM65.3879 143.011L48.5655 151.456L34.5784 133.994C37.944 127.94 46.8185 112.584 48.9301 111.567C48.9844 111.545 49.0427 111.535 49.1012 111.537C49.1596 111.54 49.2169 111.554 49.2693 111.58C51.7877 112.507 57.9542 125.971 60.1543 131.07L65.3879 143.011Z" fill="#231F20"/>
<path d="M25.1073 123.667C25.1073 123.667 20.1924 118.024 23.6878 115.949C23.6878 115.949 22.3294 111.009 27.5838 111.047C27.5838 111.047 26.6399 105.67 30.8984 104.991C35.1569 104.312 42.1605 112.149 42.6546 114.681C43.1487 117.213 39.5441 117.09 37.0992 115.604C37.0992 115.604 40.6065 118.381 39.7223 119.885C38.4286 122.113 35.3705 120.5 32.9659 119.412C32.9659 119.412 37.19 122.587 33.841 124.512C31.272 125.989 26.382 121.614 26.382 121.614L25.1073 123.667Z" fill="white"/>
<path d="M32.037 125.048C32.7002 125.171 33.3857 125.068 33.9835 124.754C34.3674 124.577 34.6992 124.303 34.947 123.96C35.1948 123.617 35.3503 123.215 35.3985 122.795C35.3587 121.882 34.983 121.017 34.3439 120.365C36.4865 121.296 38.8009 122.017 39.9595 120.021C40.5526 119.006 39.5666 117.618 38.6222 116.618C40.0463 117.081 41.4683 117.078 42.2633 116.524C42.5612 116.319 42.7857 116.023 42.9038 115.681C43.0219 115.339 43.0274 114.967 42.9195 114.622C42.4022 111.972 35.217 104.012 30.8423 104.709C30.3094 104.778 29.796 104.955 29.3337 105.229C28.8713 105.504 28.4699 105.87 28.1539 106.306C27.0579 107.86 27.1639 109.961 27.2585 110.738C25.756 110.788 24.6544 111.258 23.9775 112.143C22.9928 113.434 23.2387 115.19 23.3642 115.789C23.0508 115.991 22.7838 116.257 22.5806 116.571C22.3775 116.884 22.2428 117.236 22.1856 117.605C21.7665 120.202 24.7384 123.666 24.8874 123.819C24.9165 123.852 24.9531 123.878 24.9942 123.895C25.0353 123.912 25.0798 123.919 25.124 123.915C25.1675 123.911 25.2096 123.897 25.2472 123.875C25.2848 123.853 25.3169 123.822 25.3413 123.786L26.4402 122.01C27.2553 122.718 29.8073 124.732 32.037 125.048ZM33.0068 119.127C32.9516 119.118 32.895 119.126 32.8447 119.151C32.7943 119.176 32.7528 119.215 32.7259 119.264C32.6905 119.324 32.6783 119.395 32.6918 119.463C32.7052 119.531 32.7432 119.592 32.7986 119.634C32.7986 119.634 34.9442 121.266 34.8498 122.774C34.8029 123.101 34.6729 123.411 34.4724 123.674C34.2719 123.937 34.0075 124.144 33.7045 124.276C31.332 125.649 26.615 121.459 26.5695 121.418C26.5396 121.389 26.5033 121.368 26.4637 121.355C26.4241 121.343 26.3821 121.339 26.341 121.346C26.3002 121.352 26.2613 121.367 26.2267 121.39C26.1921 121.413 26.1627 121.442 26.1404 121.477L25.0717 123.201C24.3719 122.321 22.4333 119.669 22.7463 117.742C22.7961 117.42 22.9202 117.114 23.1089 116.849C23.2975 116.584 23.5454 116.366 23.8327 116.214C23.8848 116.182 23.925 116.133 23.9474 116.076C23.9699 116.018 23.9734 115.955 23.9575 115.896C23.9575 115.896 23.4168 113.853 24.4325 112.543C25.0394 111.752 26.1021 111.355 27.5791 111.365C27.6205 111.365 27.6615 111.356 27.6992 111.339C27.737 111.321 27.7706 111.296 27.798 111.265C27.825 111.234 27.8446 111.197 27.8552 111.157C27.8658 111.117 27.8671 111.075 27.8591 111.034C27.863 111.006 27.4134 108.361 28.62 106.668C28.8902 106.289 29.2363 105.97 29.6361 105.733C30.036 105.495 30.4808 105.343 30.9423 105.287C34.9619 104.649 41.8913 112.288 42.3782 114.75C42.4549 114.988 42.4554 115.245 42.3798 115.483C42.3042 115.722 42.1562 115.931 41.9564 116.081C41.0365 116.715 38.8816 116.392 37.2461 115.374C37.185 115.337 37.1124 115.326 37.043 115.341C36.9735 115.356 36.9123 115.397 36.8716 115.455C36.8309 115.514 36.8138 115.585 36.8237 115.656C36.8336 115.726 36.8697 115.791 36.9248 115.836C37.7821 116.527 40.1017 118.697 39.4799 119.754C38.3985 121.607 35.8417 120.43 33.5827 119.397L33.0809 119.166C33.0592 119.148 33.034 119.135 33.0068 119.127V119.127Z" fill="#231F20"/>
<path d="M32.807 101.508C32.807 101.508 33.3319 96.8011 37.0474 99.1115C40.7629 101.422 46.1916 106.449 42.6749 108.754C39.1582 111.06 33.2423 105.218 32.807 101.508Z" fill="white"/>
<path d="M40.2545 109.517C41.1482 109.671 42.0671 109.484 42.8307 108.993C43.2172 108.772 43.5379 108.452 43.7597 108.066C43.9814 107.679 44.096 107.241 44.0917 106.795C44.0584 103.901 39.5696 100.346 37.1964 98.876C36.066 98.1459 35.0793 98.0061 34.2723 98.4046C32.807 99.1146 32.542 101.385 32.5286 101.48C32.5231 101.5 32.5201 101.521 32.5199 101.542C32.8213 104.149 35.638 107.626 38.5167 108.98C39.0665 109.243 39.652 109.424 40.2545 109.517V109.517ZM35.4812 98.7811C35.9888 98.8719 36.4723 99.0666 36.9014 99.3528C39.551 100.999 43.5006 104.346 43.5336 106.801C43.5356 107.153 43.4426 107.498 43.2645 107.801C43.0865 108.104 42.8299 108.353 42.5222 108.522C41.2687 109.341 39.7898 108.944 38.7711 108.469C36.1059 107.213 33.396 103.906 33.0931 101.509C33.1296 101.252 33.414 99.4457 34.5187 98.9126C34.8185 98.7705 35.1546 98.7246 35.4812 98.7811Z" fill="#231F20"/>
<path d="M61.2999 133.028C61.2999 133.028 58.6013 119.97 57.9124 117.729C56.7437 113.939 53.4295 108.636 49.8723 109.141C46.3152 109.646 38.6684 111.964 41.252 114.639C43.606 117.087 50.2169 114.855 50.2169 114.855C50.2169 114.855 47.7473 121.207 50.336 125.33" fill="white"/>
<path d="M61.2598 133.307C61.2903 133.317 61.3224 133.322 61.3545 133.32C61.3911 133.313 61.4258 133.299 61.4567 133.278C61.4877 133.258 61.5141 133.231 61.5344 133.2C61.5548 133.169 61.5686 133.134 61.5752 133.097C61.5817 133.06 61.5808 133.023 61.5724 132.986C61.4661 132.453 58.8786 119.895 58.1778 117.659C56.9484 113.694 53.5506 108.34 49.831 108.867C47.2427 109.236 41.3065 110.799 40.5328 113.049C40.436 113.365 40.4332 113.701 40.5246 114.018C40.6161 114.335 40.798 114.618 41.0478 114.832C43.1205 116.978 48.1023 115.769 49.7693 115.281C49.2307 116.915 47.8764 121.938 50.0991 125.473C50.1162 125.509 50.1406 125.541 50.1708 125.566C50.2011 125.592 50.2364 125.611 50.2744 125.622C50.3125 125.633 50.3525 125.636 50.3918 125.631C50.4311 125.625 50.4688 125.612 50.5024 125.59C50.536 125.569 50.5648 125.541 50.5869 125.508C50.609 125.475 50.6239 125.438 50.6306 125.399C50.6373 125.36 50.6357 125.32 50.6258 125.281C50.616 125.243 50.5981 125.207 50.5734 125.176C48.0924 121.216 50.4554 115.014 50.4816 114.949C50.5 114.899 50.5041 114.844 50.4935 114.791C50.4829 114.738 50.4581 114.69 50.4217 114.65C50.385 114.612 50.3379 114.584 50.2862 114.572C50.2345 114.56 50.1803 114.563 50.1302 114.58C50.0649 114.6 43.6617 116.73 41.4559 114.44C41.278 114.303 41.145 114.116 41.0739 113.903C41.0028 113.69 40.9969 113.46 41.0568 113.243C41.6486 111.515 46.6485 109.898 49.8975 109.441C53.2525 108.959 56.4949 114.166 57.6293 117.837C58.3119 120.043 60.9816 132.982 61.0056 133.134C61.0273 133.184 61.0627 133.227 61.1077 133.257C61.1527 133.288 61.2054 133.305 61.2598 133.307V133.307Z" fill="#231F20"/>
<path d="M32.9298 119.686C32.9932 119.697 33.0584 119.686 33.1144 119.654C33.1705 119.622 33.214 119.572 33.2378 119.512C33.2616 119.452 33.2642 119.386 33.2451 119.325C33.2261 119.263 33.1866 119.21 33.1332 119.174C31.5278 118.029 29.7664 117.121 27.903 116.478C27.8314 116.458 27.7548 116.466 27.6893 116.502C27.6239 116.537 27.5746 116.596 27.552 116.667C27.5413 116.703 27.5377 116.74 27.5414 116.777C27.5451 116.814 27.5561 116.85 27.5736 116.883C27.5912 116.915 27.615 116.944 27.6437 116.968C27.6724 116.991 27.7055 117.009 27.741 117.019C29.5431 117.65 31.2481 118.53 32.8063 119.635C32.8422 119.663 32.8848 119.68 32.9298 119.686Z" fill="#231F20"/>
<path d="M37.0611 115.878C37.132 115.886 37.2036 115.868 37.2618 115.827C37.2913 115.805 37.3163 115.777 37.3351 115.746C37.3539 115.714 37.3663 115.679 37.3715 115.643C37.3766 115.606 37.3745 115.569 37.3651 115.534C37.3558 115.498 37.3395 115.465 37.3172 115.435C35.8519 113.545 33.7799 112.221 31.4515 111.686C31.3793 111.67 31.3035 111.682 31.2405 111.721C31.1775 111.76 31.1323 111.823 31.1149 111.895C31.1059 111.931 31.1042 111.968 31.1098 112.005C31.1155 112.041 31.1284 112.076 31.1478 112.108C31.1672 112.139 31.1927 112.166 31.2228 112.188C31.2529 112.209 31.2869 112.224 31.323 112.232C33.5087 112.755 35.4565 113.996 36.8564 115.758C36.8803 115.791 36.9108 115.819 36.9461 115.84C36.9813 115.86 37.0205 115.873 37.0611 115.878V115.878Z" fill="#231F20"/>
<path d="M26.346 121.888C26.3816 121.901 26.4192 121.906 26.4569 121.904C26.4945 121.902 26.5314 121.892 26.5654 121.876C26.5994 121.86 26.6298 121.837 26.655 121.809C26.6802 121.78 26.6996 121.748 26.7121 121.712C26.7246 121.676 26.73 121.639 26.728 121.601C26.7259 121.563 26.7165 121.526 26.7002 121.492C26.6839 121.458 26.6611 121.428 26.633 121.402C26.605 121.377 26.5722 121.358 26.5366 121.345L24.7928 120.289C24.729 120.249 24.6523 120.237 24.5794 120.255C24.5066 120.272 24.4436 120.318 24.4044 120.382C24.3651 120.446 24.3529 120.523 24.3702 120.596C24.3876 120.669 24.4332 120.732 24.497 120.771L26.2408 121.828C26.2709 121.855 26.3068 121.876 26.346 121.888V121.888Z" fill="#231F20"/>
<path d="M47.3437 152.736C47.3437 152.736 44.0995 149.347 44.0531 149.032C44.0066 148.718 63.7086 134.72 63.7086 134.72L72.6372 142.294L47.3437 152.736Z" fill="#231F20"/>
<path d="M47.304 153.015C47.3532 153.023 47.4034 153.016 47.4489 152.996L72.7703 142.558C72.815 142.54 72.8544 142.511 72.8846 142.473C72.9148 142.436 72.9349 142.391 72.9429 142.343C72.95 142.295 72.9446 142.246 72.9271 142.201C72.9096 142.155 72.8807 142.115 72.8432 142.084L63.8795 134.476C63.8314 134.437 63.7717 134.414 63.7096 134.411C63.6474 134.409 63.586 134.426 63.5347 134.462C43.6951 148.589 43.7375 148.851 43.7736 149.078C43.7601 149.173 43.8368 149.475 47.1391 152.935C47.1836 152.98 47.2416 153.008 47.304 153.015V153.015ZM72.1474 142.219L47.4317 152.395C46.1296 151.031 44.7708 149.545 44.4185 149.061C45.7155 147.934 56.4106 140.234 63.6968 135.043L72.1474 142.219Z" fill="#231F20"/>
<path d="M46.2533 152.889L70.6265 137.666L108.567 170.029L57.5121 169.901L46.2533 152.889Z" fill="#45505C"/>
<defs>
<linearGradient id="paint0_linear_1041_11827" x1="82.998" y1="99.0036" x2="35.998" y2="18.0036" gradientUnits="userSpaceOnUse">
<stop stop-color="#929090"/>
<stop offset="1" stop-color="#929090" stop-opacity="0"/>
</linearGradient>
</defs>
</svg>
