<svg width="68" height="80" viewBox="0 0 68 80" fill="none" xmlns="http://www.w3.org/2000/svg">
<path d="M24.3006 0.229903C20.8782 0.980019 18.2216 3.19911 16.8932 6.40273C16.2369 7.9811 15.6743 8.35615 13.6115 8.59057C11.033 8.88749 9.32956 9.70011 7.48553 11.5441C4.98514 14.0445 3.96936 17.2325 4.61009 20.5455C4.92263 22.1552 4.93826 22.9522 4.6726 23.4679C4.5632 23.671 3.8756 24.4211 3.14111 25.1556C1.00015 27.2653 0 29.5938 0 32.5005C0 35.4072 1.00015 37.7357 3.14111 39.8454C3.8756 40.5799 4.5632 41.33 4.6726 41.5331C4.93826 42.0488 4.92263 42.8458 4.61009 44.4555C3.96936 47.7685 4.98514 50.9565 7.48553 53.4568C9.32956 55.3009 11.033 56.1135 13.6115 56.4104C15.0804 56.5823 15.6587 56.7855 16.1431 57.3168C16.4088 57.6137 16.3932 57.6294 15.4711 57.9575C13.2989 58.7545 10.9079 60.5048 9.54835 62.302C8.50131 63.6772 7.43865 65.8494 7.00108 67.4278C6.70416 68.5529 6.65728 69.178 6.59477 73.8662L6.53226 79.0702L7.00108 79.539C7.56367 80.086 8.22002 80.1485 8.76698 79.7109L9.14203 79.414L9.2358 74.1944C9.34519 68.381 9.39207 68.0372 10.4704 65.865C11.533 63.6928 13.0958 62.0988 15.3149 60.958C16.7995 60.1766 18.0809 59.8485 20.2375 59.6922C21.1908 59.614 22.2065 59.5047 22.5035 59.4578C23.0348 59.364 23.238 59.489 27.6293 62.8958L32.1925 66.4276V72.5535C32.1925 78.07 32.2237 78.7264 32.4738 79.2264C32.9895 80.2579 34.2084 80.2579 34.7241 79.2264C34.9741 78.7264 35.0054 78.07 35.0054 72.5535V66.4432L37.6464 64.396C39.0998 63.2865 40.3187 62.2551 40.3812 62.1144C40.6 61.505 40.475 60.9736 39.9905 60.5673C39.131 59.8328 39.1779 59.8172 35.1773 62.9427C34.3647 63.5678 33.6146 64.0522 33.5052 64.0053C33.2395 63.896 25.8165 58.1607 25.7071 57.9575C25.6446 57.8794 25.8477 57.5825 26.1447 57.3012C27.2698 56.2385 28.1137 54.582 28.52 52.5973C28.5982 52.2379 28.6763 52.1754 28.9576 52.2535C31.5049 52.9568 35.4117 52.9724 38.0527 52.2848C40.1468 51.7378 42.991 50.3157 44.6475 48.9874C48.1637 46.1745 50.4296 42.3301 51.1798 37.9076C51.5236 35.8916 51.5079 27.3435 51.1641 25.6557C50.1484 20.6862 46.6009 16.8575 41.647 15.3885C40.4125 15.0134 39.8968 14.9509 37.3026 14.8884L34.3647 14.7946L34.4741 13.9664C34.5678 13.2163 34.5366 13.1069 34.1771 12.7475C33.8958 12.4662 33.5989 12.3411 33.2395 12.3411C32.38 12.3411 32.0674 12.7318 31.6611 14.2946C30.9735 16.8418 30.2234 18.5921 28.9732 20.4674C25.7071 25.4213 20.3938 28.6093 13.9084 29.5313C12.5019 29.7344 12.0331 30.0782 12.0331 30.9378C12.0331 31.3441 12.1425 31.6097 12.4394 31.891C12.9239 32.3442 13.4865 32.3442 15.94 31.8754C23.5818 30.4221 29.8796 25.5776 32.9113 18.8265L33.5208 17.4669L36.7244 17.5451C40.3031 17.6388 40.9126 17.7482 42.9129 18.7328C45.3195 19.9204 47.3042 22.2177 48.2106 24.8587L48.6637 26.1714L48.7263 31.1097C48.7888 36.423 48.6637 37.8138 47.9605 39.8766C46.8979 42.9709 44.7413 45.7838 41.9908 47.6435C40.8813 48.3936 38.7872 49.3468 37.3964 49.7219C35.5524 50.222 31.6924 50.222 29.8484 49.7219C23.3317 47.9404 19.0342 42.6896 18.456 35.8135C18.3466 34.5321 18.2684 34.282 17.9715 34.032C17.4714 33.6257 16.6276 33.6726 16.1744 34.1414C15.8462 34.4539 15.7837 34.6727 15.7837 35.501C15.7837 37.6575 16.5494 40.7674 17.6121 42.8927C19.2373 46.1276 21.8627 48.878 24.9101 50.5658C25.8634 51.0815 25.9415 51.1596 25.9415 51.6441C25.9415 51.9254 25.8009 52.5973 25.6446 53.113C24.9101 55.4728 22.7066 57.0355 20.0968 57.0355C19.1592 57.0355 19.1279 57.0199 18.8467 56.4886C18.0809 55.0821 16.2838 53.9882 14.4554 53.8319C11.6737 53.5662 9.62648 52.4254 8.28253 50.3314C7.14173 48.5342 6.86043 46.8465 7.34488 44.393C7.6418 42.8771 7.65743 42.5333 7.50116 41.7519C7.20424 40.3923 6.79792 39.736 5.32895 38.2826C3.39115 36.3761 2.65666 34.7821 2.65666 32.5005C2.65666 30.2189 3.39115 28.6249 5.32895 26.7184C6.82918 25.2338 7.23549 24.5774 7.48553 23.1709C7.6418 22.3427 7.62618 21.9833 7.32925 20.608C6.8448 18.2639 7.14173 16.4668 8.28253 14.6696C9.62648 12.5756 11.6737 11.4348 14.4554 11.1691C16.7838 10.9659 18.1747 9.88764 19.378 7.38726C20.3313 5.40257 21.2845 4.38679 22.9254 3.55854C25.1601 2.449 27.598 2.40211 29.5827 3.43352C30.114 3.71481 30.8954 4.12113 31.333 4.35554C32.0206 4.71497 32.3019 4.76185 33.5989 4.76185C34.896 4.76185 35.1773 4.71497 35.8649 4.35554C36.3025 4.12113 37.0838 3.71481 37.6152 3.43352C39.5999 2.40211 42.0377 2.449 44.2724 3.55854C45.9133 4.38679 46.8666 5.40257 47.8199 7.38726C49.0232 9.88764 50.414 10.9659 52.7425 11.1691C55.6179 11.4348 57.6964 12.6537 58.9778 14.8415C60.1186 16.7793 60.3218 18.1702 59.853 20.5924C59.5561 22.1239 59.5404 22.4677 59.6967 23.2491C59.9936 24.6087 60.3999 25.265 61.8689 26.7184C63.8067 28.6249 64.5412 30.2189 64.5412 32.5005C64.5412 34.7821 63.8067 36.3761 61.8689 38.2826C60.3999 39.736 59.9936 40.3923 59.6967 41.7519C59.5404 42.5333 59.5561 42.8771 59.853 44.3773C60.228 46.2839 60.1811 47.2528 59.6811 48.7374C59.181 50.1907 57.9933 51.7066 56.6337 52.6599C55.5867 53.3943 55.8836 54.8477 57.1338 55.0977C57.7276 55.2071 58.7278 54.5508 59.978 53.2224C61.1032 52.0191 61.7283 50.9565 62.2908 49.3C62.8066 47.7372 62.8847 45.5338 62.4628 43.7991C62.3221 43.1896 62.2283 42.5802 62.2596 42.4708C62.2908 42.3614 62.369 42.0645 62.4315 41.8301C62.494 41.5488 63.0722 40.8455 63.963 39.9548C66.2133 37.7201 67.1979 35.4541 67.1979 32.5005C67.1979 29.5469 66.2133 27.2809 63.963 25.0462C63.0722 24.1555 62.494 23.4522 62.4315 23.1709C62.369 22.9365 62.3065 22.6552 62.2752 22.5458C62.244 22.4521 62.3534 21.6707 62.5409 20.8268C63.2597 17.3419 62.2752 14.107 59.7123 11.5441C57.8683 9.70011 56.1649 8.88749 53.5864 8.59057C51.5236 8.35615 50.961 7.9811 50.3046 6.40273C48.7731 2.69903 45.3507 0.261158 41.3345 0.0423745C39.1154 -0.0826448 37.3651 0.401805 34.8491 1.87078C34.1459 2.27709 33.052 2.27709 32.3487 1.87078C29.3795 0.151766 26.926 -0.348311 24.3006 0.229903Z" fill="black"/>
<path d="M40.1945 54.0038C39.2412 54.6602 39.5381 55.7854 41.0696 57.3168C42.5855 58.8327 44.7108 59.6922 46.8986 59.6922C48.4145 59.6922 50.1179 60.1141 51.6493 60.8643C54.0403 62.0363 55.6031 63.5834 56.7283 65.865C57.8065 68.0372 57.8534 68.381 57.9628 74.1944L58.0566 79.414L58.4316 79.7109C58.9786 80.1485 59.635 80.086 60.1975 79.539L60.6664 79.0702L60.6039 73.8663C60.5413 69.178 60.4945 68.5529 60.1975 67.4278C59.7443 65.7556 58.6504 63.5834 57.5721 62.1926C55.1499 59.114 50.9305 57.0355 47.0236 57.0355C45.8516 57.0355 44.6326 56.6605 43.6481 55.9885C43.1949 55.6916 42.8199 55.3947 42.8199 55.3322C42.8199 55.2697 42.5073 54.8946 42.1479 54.4883C41.3978 53.6757 40.8508 53.5506 40.1945 54.0038Z" fill="black"/>
</svg>
