<svg width="111" height="111" viewBox="0 0 111 111" fill="none" xmlns="http://www.w3.org/2000/svg">
<path d="M55.4952 109.99C85.6252 109.99 110.5 85.0815 110.5 54.9952C110.5 24.8654 85.5816 0 55.4516 0C25.375 0 0.5 24.8654 0.5 54.9952C0.5 85.0815 25.4186 109.99 55.4952 109.99Z" fill="#62B2A1"/>
<path d="M55.4554 100.949C43.5603 100.949 30.8923 96.0401 22.8711 87.3813C28.9373 78.2059 41.1038 72.9299 55.4554 72.9299C69.7005 72.9299 81.964 78.0996 88.0927 87.3813C80.0181 96.0401 67.394 100.949 55.4554 100.949ZM55.4554 63.7349C45.0607 63.6477 36.9447 54.9375 36.9447 43.4335C36.8914 32.5927 45.1426 23.495 55.4554 23.495C65.8211 23.495 73.9757 32.5927 73.9757 43.4335C73.9757 54.9375 65.9034 63.8226 55.4554 63.7349Z" fill="white"/>
</svg>
