<svg width="108" height="168" viewBox="0 0 108 168" fill="none" xmlns="http://www.w3.org/2000/svg">
<path d="M53.8123 107.625C83.5317 107.625 107.625 83.5313 107.625 53.8125C107.625 24.0937 83.5317 0 53.8123 0C24.0926 0 0 24.0937 0 53.8125C0 83.5313 24.0926 107.625 53.8123 107.625Z" fill="#E8F2EE"/>
<path d="M53.8125 99.75C79.1831 99.75 99.75 79.1821 99.75 53.8125C99.75 28.4429 79.1831 7.875 53.8125 7.875C28.4419 7.875 7.875 28.4429 7.875 53.8125C7.875 79.1821 28.4419 99.75 53.8125 99.75Z" fill="#45505C"/>
<path d="M70.1764 112.465L81.7229 108.484C85.5388 107.165 87.5576 103.04 86.2036 99.2989C84.8495 95.5578 80.6642 93.5913 76.8236 94.9103L65.2771 98.8912C61.4612 100.21 59.4424 104.335 60.7964 108.076C62.1505 111.817 66.3604 113.784 70.1764 112.465Z" fill="#E8F2EE"/>
<path d="M101.621 167.689L102.407 167.375C104.567 166.515 105.584 164.184 104.656 162.167L77.2166 102.168C76.2883 100.151 73.789 99.2086 71.6289 100.068L70.8433 100.382C68.6832 101.242 67.6656 103.573 68.5939 105.59L96.0334 165.589C96.9438 167.606 99.4432 168.532 101.621 167.689Z" fill="#E8F2EE"/>
</svg>
