<svg width="112" height="165" viewBox="0 0 112 165" fill="none" xmlns="http://www.w3.org/2000/svg">
<path d="M4.78095 164.631L3.6695 164.258C0.612981 163.237 -0.826869 160.471 0.486675 158.077L39.3125 86.8697C40.6261 84.4758 44.1625 83.3574 47.219 84.3777L48.3305 84.7505C51.387 85.7709 52.8269 88.5375 51.5133 90.9314L12.6875 162.139C11.3992 164.532 7.86273 165.631 4.78095 164.631Z" fill="#62B2A1"/>
<path d="M58.1877 107.625C28.4683 107.625 4.375 83.5313 4.375 53.8125C4.375 24.0937 28.4683 0 58.1877 0C87.9074 0 112 24.0937 112 53.8125C112 83.5313 87.9074 107.625 58.1877 107.625Z" fill="#62B2A1"/>
<path d="M57.5 91C37.3416 91 21 74.6576 21 54.5C21 34.3424 37.3416 18 57.5 18C77.6584 18 94 34.3424 94 54.5C94 74.6576 77.6584 91 57.5 91Z" fill="white"/>
<path d="M41.8236 112.465L30.2771 108.484C26.4612 107.165 24.4424 103.04 25.7964 99.2989C27.1505 95.5578 31.3358 93.5913 35.1764 94.9103L46.7229 98.8912C50.5388 100.21 52.5576 104.335 51.2036 108.076C49.8495 111.817 45.6396 113.784 41.8236 112.465Z" fill="#62B2A1"/>
</svg>
