<svg width="261" height="406" viewBox="0 0 261 406" fill="none" xmlns="http://www.w3.org/2000/svg">
<path d="M169.593 271.79L197.497 262.169C206.719 258.982 211.598 249.013 208.325 239.972C205.053 230.931 194.938 226.179 185.657 229.367L157.753 238.987C148.531 242.175 143.652 252.143 146.925 261.184C150.197 270.225 160.371 274.977 169.593 271.79Z" fill="#F6F6F6"/>
<path d="M245.584 405.248L247.483 404.489C252.703 402.411 255.162 396.777 252.919 391.903L186.607 246.906C184.363 242.031 178.323 239.754 173.103 241.832L171.205 242.591C165.984 244.668 163.525 250.302 165.769 255.177L232.081 400.173C234.281 405.048 240.321 407.285 245.584 405.248Z" fill="#F6F6F6"/>
<path d="M260.094 130.047C260.094 201.87 201.87 260.094 130.047 260.094C58.224 260.094 0 201.87 0 130.047C0 58.224 58.224 0 130.047 0C201.87 0 260.094 58.224 260.094 130.047ZM24.7213 130.047C24.7213 188.217 71.8772 235.372 130.047 235.372C188.217 235.372 235.372 188.217 235.372 130.047C235.372 71.8772 188.217 24.7213 130.047 24.7213C71.8772 24.7213 24.7213 71.8772 24.7213 130.047Z" fill="#F6F6F6"/>
</svg>
