<svg width="112" height="165" viewBox="0 0 112 165" fill="none" xmlns="http://www.w3.org/2000/svg">
<path d="M107.219 164.631L108.331 164.258C111.387 163.237 112.827 160.471 111.513 158.077L72.6875 86.8697C71.3739 84.4758 67.8375 83.3574 64.781 84.3777L63.6695 84.7505C60.613 85.7709 59.1731 88.5375 60.4867 90.9314L99.3125 162.139C100.601 164.532 104.137 165.631 107.219 164.631Z" fill="#62B2A1"/>
<path d="M53.8123 107.625C83.5317 107.625 107.625 83.5313 107.625 53.8125C107.625 24.0937 83.5317 0 53.8123 0C24.0926 0 0 24.0937 0 53.8125C0 83.5313 24.0926 107.625 53.8123 107.625Z" fill="#62B2A1"/>
<path d="M53.5 91C73.6584 91 90 74.6576 90 54.5C90 34.3424 73.6584 18 53.5 18C33.3416 18 17 34.3424 17 54.5C17 74.6576 33.3416 91 53.5 91Z" fill="white"/>
<path d="M70.1764 112.465L81.7229 108.484C85.5388 107.165 87.5576 103.04 86.2036 99.2989C84.8495 95.5578 80.6642 93.5913 76.8236 94.9103L65.2771 98.8912C61.4612 100.21 59.4424 104.335 60.7964 108.076C62.1505 111.817 66.3604 113.784 70.1764 112.465Z" fill="#62B2A1"/>
</svg>
