<svg width="369" height="368" viewBox="0 0 369 368" fill="none" xmlns="http://www.w3.org/2000/svg">
<rect width="369" height="368" fill="#CDCDCD"/>
<g filter="url(#filter0_d_0_1)">
<g clip-path="url(#clip0_0_1)">
<rect x="-116" width="485" height="619" rx="10" fill="white"/>
</g>
</g>
<path d="M220.481 367.962C341.275 367.962 441 268.1 441 147.481C441 26.6876 341.1 -73 220.306 -73C99.726 -73 0 26.6876 0 147.481C0 268.1 99.9011 367.962 220.481 367.962Z" fill="#62B2A1"/>
<path d="M196.689 252.855C188.664 252.855 182.073 249.367 176.1 241.628L123.793 177.999C119.977 173.116 118.018 168.189 118.018 162.781C118.018 151.907 126.641 143.088 137.475 143.088C144.241 143.088 149.36 145.356 154.85 152.399L195.989 204.633L284.249 63.3196C288.881 56.0325 294.93 52.1948 301.478 52.1948C312.139 52.1948 321.927 59.6739 321.927 70.8584C321.927 75.7847 319.344 81.0014 316.361 85.9063L216.502 241.475C211.597 248.941 204.676 252.855 196.689 252.855Z" fill="white"/>
<defs>
<filter id="filter0_d_0_1" x="-176" y="-20" width="565" height="699" filterUnits="userSpaceOnUse" color-interpolation-filters="sRGB">
<feFlood flood-opacity="0" result="BackgroundImageFix"/>
<feColorMatrix in="SourceAlpha" type="matrix" values="0 0 0 0 0 0 0 0 0 0 0 0 0 0 0 0 0 0 127 0" result="hardAlpha"/>
<feOffset dx="-20" dy="20"/>
<feGaussianBlur stdDeviation="20"/>
<feComposite in2="hardAlpha" operator="out"/>
<feColorMatrix type="matrix" values="0 0 0 0 0.695833 0 0 0 0 0.668093 0 0 0 0 0.658142 0 0 0 0.48 0"/>
<feBlend mode="normal" in2="BackgroundImageFix" result="effect1_dropShadow_0_1"/>
<feBlend mode="normal" in="SourceGraphic" in2="effect1_dropShadow_0_1" result="shape"/>
</filter>
<clipPath id="clip0_0_1">
<rect x="-116" width="485" height="619" rx="10" fill="white"/>
</clipPath>
</defs>
</svg>
