<svg width="56" height="80" viewBox="0 0 56 80" fill="none" xmlns="http://www.w3.org/2000/svg">
<path d="M21.3327 0.112481C14.498 1.14473 8.80499 5.89933 6.72485 12.2961C5.95848 14.6735 5.89592 15.2209 5.7708 21.6802C5.66132 27.3732 5.63004 27.9519 5.31723 29.1093C4.83239 30.861 4.2537 32.1122 2.98685 34.2393C2.37689 35.2559 1.67308 36.6009 1.4072 37.2109C-0.829342 42.6224 -0.375778 49.0818 2.59585 54.1335C3.45606 55.6037 5.06699 57.5743 6.14616 58.4971L7.02201 59.2478L5.94284 60.0924C3.80014 61.7659 1.98588 64.5968 1.20388 67.4276C0.906714 68.5694 0.859794 69.1637 0.797233 73.8714L0.734672 79.0795L1.23516 79.5644C1.65744 79.9867 1.7982 80.0492 2.28305 79.971C3.36222 79.7833 3.33094 79.9398 3.44042 74.1842C3.5499 68.3973 3.59682 68.0376 4.67599 65.8636C5.75516 63.674 7.42865 62.0005 9.69647 60.8588C11.0728 60.155 12.3709 59.8422 14.4511 59.6858C15.4051 59.6076 16.4217 59.4981 16.7189 59.4512C17.2507 59.3573 17.454 59.4824 22.2711 63.2204C26.6191 66.5987 27.3542 67.0992 27.8234 67.0992C28.2926 67.0992 28.8244 66.7551 31.4363 64.7219C33.1254 63.4238 34.5643 62.2351 34.6112 62.0944C34.8302 61.5 34.7051 60.9683 34.2202 60.5616C33.36 59.8265 33.4069 59.8109 29.4187 62.9233C28.6054 63.5489 27.9016 64.065 27.8234 64.065C27.6983 64.065 20.6133 58.6222 20.0972 58.1218C19.8313 57.8559 19.8313 57.8246 20.5507 57.0895C21.6925 55.9009 22.3493 54.5558 22.7404 52.5851C22.8186 52.2254 22.8968 52.1629 23.1783 52.2411C25.7276 52.9449 29.6064 52.9605 32.2808 52.2723C38.0833 50.7552 42.9318 46.204 44.7773 40.5266C45.5437 38.118 45.6532 36.9763 45.6532 30.8297C45.6532 23.9637 45.8096 24.4642 43.573 24.3234C42.4 24.2452 41.8839 24.1357 41.2114 23.8073C39.7412 23.0878 38.7715 21.6177 38.4431 19.6157C38.3649 19.0683 38.2554 18.474 38.2085 18.2863C38.1303 17.911 37.4264 17.4574 36.926 17.4574C36.7539 17.4574 35.9719 17.8953 35.1586 18.4271C30.0599 21.7741 24.4608 23.995 18.3924 25.0429C17.6417 25.168 16.8909 25.34 16.7345 25.4339C16.2653 25.6841 16.062 26.4661 16.3123 27.0761C16.672 27.9206 17.3289 27.9988 20.0659 27.4514C25.1646 26.4348 30.3258 24.4798 34.4861 21.9774C35.8155 21.1797 36.1127 21.0703 36.1127 21.4143C36.1127 21.5238 36.3629 22.1182 36.6601 22.7594C37.6923 24.9021 39.6943 26.4348 42.0403 26.8728L42.9943 27.0604V31.7056C42.9943 36.6166 42.8692 37.8834 42.181 39.901C41.1332 42.9508 38.9592 45.7817 36.2222 47.6272C35.1117 48.3779 33.0159 49.3164 31.624 49.7074C29.7784 50.2078 25.9309 50.2078 24.0698 49.7074C18.2204 48.1121 14.0288 43.5764 12.9027 37.6488C12.6994 36.6166 12.6525 35.209 12.6525 30.8766C12.6525 25.1523 12.6055 24.6831 11.9487 24.4329C11.4012 24.2296 10.76 24.3391 10.3846 24.7301L9.99364 25.1054V30.7828C9.99364 36.945 10.0875 38.0555 10.8538 40.4484C12.2145 44.6869 15.2644 48.4249 19.1275 50.5519C20.0815 51.0681 20.1597 51.1463 20.1597 51.6311C20.1597 51.9126 20.019 52.5851 19.8626 53.1013C19.1275 55.4629 16.9379 57.0113 14.326 57.0269C13.1999 57.0426 11.323 57.3554 10.3221 57.6995L9.61827 57.9497L8.75806 57.2146C5.80208 54.7278 4.03474 51.9439 3.09633 48.331C2.79917 47.1737 2.73661 46.5324 2.72097 44.593C2.72097 40.9645 3.34658 38.7905 5.33287 35.5061C6.67793 33.2852 7.38173 31.6899 7.9135 29.688C8.3045 28.2334 8.32014 27.9363 8.44526 21.993C8.50782 18.5991 8.63294 15.4555 8.72678 15.0332C9.93108 9.5122 13.8098 5.13297 19.018 3.39691C21.1763 2.67746 22.4588 2.56798 28.5116 2.64618C33.6728 2.6931 34.2671 2.74002 35.4558 3.03719C41.3052 4.56992 45.6219 9.07428 46.92 15.0332C47.0139 15.4555 47.139 18.5991 47.2172 21.993C47.3267 27.514 47.3736 28.3116 47.6707 29.4534C48.1869 31.5022 48.875 33.1132 50.0637 35.0682C51.4087 37.2891 52.0969 38.8531 52.5661 40.6986C53.0509 42.6537 53.0509 46.5168 52.5661 48.2997C52.0969 50.0202 51.4087 51.6624 50.5954 53.0074C49.8134 54.3056 49.7665 54.4776 50.1106 55.1345C50.3608 55.6193 50.6267 55.7757 51.2211 55.7757C51.8623 55.7757 52.1595 55.5255 52.9258 54.3056C55.7411 49.7856 56.4292 43.7641 54.7244 38.5559C54.2083 36.9763 53.614 35.772 52.441 33.8639C51.44 32.253 50.8144 30.8297 50.3296 29.1093C50.0168 27.9519 49.9855 27.3732 49.876 21.6802C49.7822 16.91 49.6883 15.2521 49.5006 14.4076C48.7812 11.2795 47.6551 8.94916 45.6688 6.47802C43.3071 3.53767 39.7099 1.31677 35.8155 0.378363C34.5956 0.0812007 33.9074 0.0499204 28.3708 0.003C25.0238 -0.0126401 21.8489 0.0342803 21.3327 0.112481Z" fill="black"/>
<path d="M34.4234 53.9928C33.4694 54.6496 33.7665 55.7757 35.2993 57.3085C36.8164 58.8256 38.9434 59.6858 41.133 59.6858C42.6501 59.6858 44.3549 60.1081 45.8876 60.8588C48.2806 62.0318 49.8446 63.5802 50.9707 65.8636C52.0499 68.0376 52.0968 68.3817 52.2063 74.1842C52.3157 79.9398 52.2845 79.7833 53.3636 79.971C53.8485 80.0492 53.9892 79.9867 54.4115 79.5644L54.912 79.0795L54.8494 73.8714C54.7869 69.1793 54.74 68.5537 54.4428 67.4276C53.9892 65.7541 52.8944 63.5802 51.8153 62.1882C49.3754 59.0914 45.1682 57.0269 41.2269 57.0269C40.1164 57.0269 38.6306 56.5421 37.7235 55.9009C37.3481 55.635 37.051 55.3691 37.051 55.3222C37.051 55.2596 36.7382 54.8842 36.3784 54.4776C35.6277 53.6643 35.0803 53.5392 34.4234 53.9928Z" fill="black"/>
</svg>
