<svg width="156" height="147" viewBox="0 0 156 147" fill="none" xmlns="http://www.w3.org/2000/svg">
<path d="M64.4827 104.202L59.2514 115.476L75.9502 123.542L89.7856 107.086C89.7856 107.086 78.3177 87.1752 75.7112 85.9791C73.1046 84.7829 64.4827 104.202 64.4827 104.202Z" fill="white"/>
<path d="M75.989 123.822C75.9347 123.83 75.8794 123.821 75.831 123.796L59.1322 115.729C59.069 115.699 59.0204 115.647 58.9968 115.583C58.9731 115.519 58.9762 115.449 59.0053 115.387L64.2313 104.114C64.556 103.394 71.9467 86.9041 75.0962 85.7753C75.2155 85.7258 75.3442 85.7007 75.4741 85.7016C75.604 85.7025 75.7324 85.7293 75.851 85.7803C78.4906 87.0143 89.5592 106.185 90.0299 107C90.0553 107.046 90.0661 107.098 90.0608 107.149C90.0556 107.201 90.0345 107.25 90.0004 107.29L76.1627 123.73C76.1416 123.756 76.1153 123.777 76.0855 123.793C76.0557 123.809 76.0228 123.819 75.989 123.822V123.822ZM59.6091 115.375L75.8783 123.25L89.4629 107.076C86.2183 101.449 77.6612 87.1779 75.619 86.229C75.5664 86.2087 75.5099 86.1994 75.4533 86.2014C75.3967 86.2035 75.3412 86.217 75.2905 86.2411C72.8497 87.0956 66.8471 99.5771 64.7048 104.305L59.6091 115.375Z" fill="#231F20"/>
<path d="M52.2226 76.3172C52.2226 76.3172 52.3078 83.3067 55.793 85.9666C59.2782 88.6264 69.7454 88.1232 70.5039 89.0636C71.2625 90.004 86.4984 115.81 88.3788 117.198C90.2592 118.587 96.7663 115.185 101.255 109.822C101.255 109.822 85.8026 86.1283 85.0689 83.9948C84.3352 81.8613 86.773 72.0076 86.1574 67.7698L52.2226 76.3172Z" fill="white"/>
<path d="M90.1388 117.741C89.4798 117.881 88.7897 117.764 88.2202 117.416C86.9403 116.487 80.5002 105.951 73.9913 95.2451C72.0438 92.031 70.5088 89.4969 70.2945 89.2346C70.0803 88.9724 68.1002 88.7925 66.3545 88.6342C62.7696 88.3194 57.8622 87.8798 55.6335 86.1785C52.0876 83.4792 51.9611 76.6221 51.9574 76.3317C51.9562 76.2731 51.9758 76.2159 52.0132 76.1696C52.0505 76.1232 52.1032 76.0905 52.1626 76.077L86.0905 67.5199C86.1288 67.5099 86.1689 67.5081 86.2079 67.5148C86.247 67.5215 86.284 67.5364 86.3163 67.5585C86.3471 67.5796 86.3731 67.6064 86.3927 67.6374C86.4124 67.6685 86.4253 67.703 86.4305 67.7389C86.7546 69.9694 86.2454 73.7387 85.7932 77.0668C85.3851 80.0929 84.9962 82.9473 85.3299 83.918C86.0499 85.9951 101.335 109.452 101.491 109.691C101.521 109.737 101.535 109.791 101.532 109.845C101.529 109.899 101.509 109.951 101.475 109.994C98.0075 114.127 93.1139 117.344 90.1388 117.741ZM52.5034 76.5286C52.5558 77.6848 52.9611 83.4683 55.9649 85.7694C58.0697 87.3762 62.8654 87.8043 66.4001 88.1152C69.077 88.3554 70.3788 88.4884 70.7212 88.9133C70.9431 89.1904 72.1522 91.1864 74.4594 94.9817C78.9303 102.343 87.2464 116.054 88.5508 117.001C90.2613 118.243 96.5142 114.987 100.926 109.814C99.4651 107.566 85.5289 86.1598 84.815 84.0872C84.437 83.0008 84.8041 80.2233 85.256 77.0063C85.7078 73.7893 86.1644 70.3019 85.9282 68.1074L52.5034 76.5286Z" fill="#231F20"/>
<path d="M97.47 112.379C97.4153 112.386 97.3597 112.377 97.3102 112.354C97.2607 112.33 97.2196 112.293 97.1922 112.247L80.3895 83.7256C80.3717 83.6957 80.3603 83.6627 80.3558 83.6286C80.3513 83.5944 80.3539 83.5598 80.3634 83.5266C80.3729 83.4934 80.3891 83.4623 80.4111 83.4352C80.4331 83.408 80.4605 83.3853 80.4917 83.3683C80.5226 83.3505 80.557 83.339 80.5927 83.3343C80.6284 83.3297 80.6648 83.332 80.6995 83.3412C80.7343 83.3504 80.7668 83.3663 80.795 83.3878C80.8232 83.4094 80.8466 83.4362 80.8637 83.4667L97.6672 111.993C97.6856 112.022 97.6975 112.055 97.7022 112.089C97.707 112.123 97.7045 112.158 97.6948 112.191C97.6852 112.224 97.6686 112.254 97.6462 112.281C97.6237 112.307 97.5958 112.329 97.5642 112.345C97.5361 112.364 97.5038 112.375 97.47 112.379V112.379Z" fill="#D1D3D4"/>
<path d="M82.5278 72.754C81.6305 74.2426 81.2162 75.9549 81.3378 77.6717C81.6057 80.3115 85.8011 85.4728 85.8011 85.4728L92.9854 79.6864L87.8648 71.3385L82.5278 72.754Z" fill="#231F20"/>
<path d="M85.8577 85.7034L85.8091 85.7099C85.736 85.6998 85.6696 85.6633 85.6236 85.6077C85.4501 85.3982 81.3769 80.358 81.1022 77.6715C80.9734 75.9129 81.3973 74.1579 82.3188 72.634C82.3557 72.5812 82.4102 72.5422 82.4734 72.5234L87.8259 71.0636C87.8837 71.0477 87.9452 71.0507 88.0011 71.0719C88.0569 71.0931 88.1039 71.1315 88.1347 71.181L93.2553 79.5289C93.2875 79.583 93.299 79.6462 93.2878 79.7076C93.2766 79.7689 93.2435 79.8246 93.1941 79.8649L86.0151 85.6506C85.9693 85.683 85.9145 85.7014 85.8577 85.7034V85.7034ZM82.7124 72.9939C81.8973 74.4031 81.521 76.0079 81.6282 77.6172C81.8543 79.8554 85.0752 84.0682 85.8644 85.0679L92.6275 79.6021L87.7362 71.6202L82.7124 72.9939Z" fill="#231F20"/>
<path d="M97.1276 103.452C97.1276 103.452 101.9 98.2253 98.5203 96.2916C98.5203 96.2916 99.8471 91.7099 94.7593 91.7332C94.7593 91.7332 95.6858 86.7449 91.5639 86.1053C87.442 85.4656 80.6421 92.7236 80.1577 95.0725C79.6733 97.4214 83.164 97.3151 85.5348 95.9412C85.5348 95.9412 82.1322 98.5104 82.9849 99.9088C84.2323 101.979 87.1972 100.489 89.5282 99.4851C89.5282 99.4851 85.4305 102.422 88.6688 104.216C91.1529 105.592 95.8982 101.543 95.8982 101.543L97.1276 103.452Z" fill="white"/>
<path d="M90.4151 104.718C89.7726 104.831 89.1091 104.733 88.531 104.44C88.1598 104.275 87.8391 104.02 87.5999 103.701C87.3608 103.382 87.2112 103.009 87.1655 102.619C87.2062 101.772 87.572 100.969 88.1924 100.367C86.1155 101.225 83.8727 101.89 82.7556 100.035C82.1837 99.0904 83.1417 97.8046 84.0585 96.8785C82.6785 97.3059 81.3015 97.2993 80.533 96.7832C80.245 96.5922 80.0284 96.3175 79.9148 95.9996C79.8012 95.6816 79.7968 95.3372 79.9021 95.0167C80.4092 92.559 87.3853 85.1877 91.6197 85.844C92.1356 85.9088 92.6323 86.0742 93.0793 86.3301C93.5263 86.586 93.9142 86.9269 94.2191 87.3319C95.2767 88.7771 95.1692 90.7267 95.0757 91.4477C96.5305 91.4968 97.596 91.9363 98.2494 92.7586C99.1998 93.9589 98.9577 95.5881 98.8347 96.1439C99.1377 96.3322 99.3956 96.58 99.5916 96.871C99.7876 97.1621 99.9171 97.4897 99.9717 97.8322C100.371 100.243 97.4856 103.452 97.3409 103.593C97.3127 103.624 97.2772 103.648 97.2374 103.663C97.1975 103.679 97.1544 103.685 97.1116 103.681C97.0695 103.678 97.0288 103.665 96.9925 103.644C96.9561 103.623 96.9251 103.595 96.9016 103.561L95.8416 101.91C95.0507 102.566 92.5749 104.43 90.4151 104.718ZM89.4899 99.2205C89.5434 99.2121 89.5982 99.22 89.6469 99.2428C89.6956 99.2657 89.7357 99.3025 89.7617 99.3481C89.7958 99.4037 89.8074 99.4694 89.7942 99.5326C89.7811 99.5958 89.7441 99.6522 89.6904 99.6908C89.6904 99.6908 87.609 101.201 87.6968 102.601C87.7415 102.905 87.8666 103.193 88.0602 103.437C88.2537 103.682 88.5092 103.874 88.8023 103.997C91.0964 105.277 95.6737 101.399 95.7178 101.361C95.7469 101.334 95.782 101.314 95.8204 101.303C95.8588 101.291 95.8995 101.288 95.9393 101.294C95.9787 101.301 96.0164 101.315 96.0498 101.336C96.0832 101.357 96.1116 101.384 96.1332 101.417L97.164 103.019C97.8437 102.204 99.727 99.7473 99.4285 97.9576C99.381 97.6588 99.2615 97.3748 99.0795 97.1283C98.8974 96.8818 98.6579 96.6795 98.3801 96.5376C98.3297 96.5071 98.2909 96.4619 98.2693 96.4086C98.2477 96.3554 98.2444 96.2969 98.26 96.2417C98.26 96.2417 98.7884 94.3469 97.8079 93.1294C97.2221 92.3933 96.1941 92.0229 94.7639 92.0287C94.7237 92.0284 94.6841 92.02 94.6476 92.0039C94.6111 91.9878 94.5785 91.9644 94.5521 91.9353C94.526 91.9063 94.5071 91.8719 94.4969 91.8347C94.4868 91.7976 94.4856 91.7587 94.4935 91.7211C94.4897 91.6952 94.9313 89.2409 93.767 87.6672C93.5062 87.3147 93.1719 87.0182 92.7853 86.7967C92.3986 86.5752 91.9683 86.4335 91.5215 86.3806C87.6308 85.7789 80.9032 92.8527 80.426 95.1372C80.3512 95.358 80.35 95.5958 80.4226 95.8174C80.4953 96.039 80.6381 96.2334 80.8312 96.3733C81.7205 96.9632 83.8078 96.6687 85.3938 95.7274C85.4531 95.6938 85.5234 95.683 85.5907 95.6972C85.6579 95.7114 85.7171 95.7494 85.7563 95.8038C85.7956 95.8581 85.812 95.9247 85.8023 95.9901C85.7925 96.0556 85.7574 96.115 85.7039 96.1566C84.8721 96.7964 82.621 98.8047 83.2206 99.7875C84.2634 101.51 86.7419 100.423 88.9317 99.4695L89.4181 99.2565C89.4392 99.2398 89.4636 99.2276 89.4899 99.2205V99.2205Z" fill="#231F20"/>
<path d="M89.0677 78.3691C89.0677 78.3691 88.5704 73.9991 84.9673 76.135C81.3642 78.2708 76.0958 82.9238 79.4956 85.0716C82.8954 87.2194 88.6375 81.8106 89.0677 78.3691Z" fill="white"/>
<path d="M81.8406 85.7847C80.9748 85.9255 80.0854 85.7499 79.3473 85.2926C78.9735 85.087 78.6637 84.7893 78.4499 84.4301C78.2361 84.071 78.1261 83.6635 78.1313 83.2499C78.1705 80.5639 82.5253 77.2754 84.8267 75.916C85.923 75.241 86.8787 75.1134 87.6592 75.4851C89.0764 76.1473 89.3276 78.2553 89.3404 78.3435C89.3457 78.3621 89.3485 78.3813 89.3487 78.4005C89.0507 80.8198 86.3151 84.0402 83.5245 85.2903C82.9915 85.5335 82.4241 85.7001 81.8406 85.7847V85.7847ZM86.4877 75.8318C85.996 75.915 85.5274 76.0945 85.1112 76.3592C82.5418 77.8813 78.7095 80.9784 78.6718 83.2571C78.669 83.5833 78.7582 83.9042 78.93 84.1857C79.1017 84.4672 79.3495 84.6988 79.6471 84.856C80.8589 85.6196 82.2918 85.2539 83.2794 84.8154C85.8631 83.6563 88.4948 80.5925 88.7937 78.3689C88.759 78.1302 88.4879 76.4532 87.4194 75.956C87.1295 75.8235 86.8041 75.7801 86.4877 75.8318Z" fill="#231F20"/>
<path d="M63.5929 106.119C63.5929 106.119 66.2365 94.0063 66.9089 91.9284C68.0494 88.4132 71.271 83.4993 74.7142 83.9757C78.1574 84.4521 85.5563 86.6214 83.0484 89.0976C80.7632 91.3643 74.3671 89.278 74.3671 89.278C74.3671 89.278 76.7435 95.1791 74.2273 98.9995" fill="white"/>
<path d="M63.6321 106.378C63.6026 106.387 63.5714 106.392 63.5403 106.39C63.505 106.384 63.4713 106.371 63.4415 106.351C63.4116 106.332 63.3861 106.307 63.3664 106.278C63.3468 106.249 63.3334 106.217 63.3272 106.183C63.321 106.149 63.322 106.114 63.3301 106.08C63.4343 105.585 65.9692 93.9363 66.6532 91.8621C67.8529 88.1857 71.1555 83.224 74.7559 83.7217C77.2613 84.0695 83.0057 85.5343 83.7496 87.6241C83.8426 87.9169 83.8445 88.2293 83.7552 88.523C83.6658 88.8168 83.4891 89.079 83.2467 89.2775C81.2347 91.2645 76.4136 90.1312 74.8007 89.675C75.3183 91.1922 76.6179 95.8569 74.4574 99.1328C74.4407 99.166 74.417 99.1955 74.3877 99.2193C74.3583 99.2431 74.3241 99.2607 74.2872 99.2709C74.2503 99.2811 74.2116 99.2837 74.1736 99.2785C74.1356 99.2733 74.0991 99.2605 74.0666 99.2408C74.0341 99.2212 74.0062 99.1952 73.9849 99.1645C73.9636 99.1338 73.9493 99.0991 73.9429 99.0627C73.9365 99.0264 73.9382 98.9891 73.9478 98.9534C73.9574 98.9177 73.9748 98.8844 73.9988 98.8556C76.4105 95.1866 74.1369 89.4251 74.1117 89.365C74.094 89.318 74.0902 89.2673 74.1005 89.2183C74.1109 89.1694 74.1351 89.1241 74.1704 89.0875C74.2061 89.0518 74.2517 89.0268 74.3018 89.0154C74.3519 89.004 74.4043 89.0068 74.4528 89.0234C74.516 89.0414 80.7112 91.0329 82.8524 88.9124C83.025 88.7858 83.1542 88.6125 83.2236 88.4149C83.2929 88.2172 83.2992 88.0041 83.2417 87.8029C82.6727 86.1974 77.8351 84.6856 74.6902 84.254C71.4427 83.7991 68.2908 88.6243 67.1838 92.0292C66.5177 94.0746 63.9022 106.078 63.8786 106.218C63.8575 106.265 63.8231 106.304 63.7795 106.332C63.7359 106.361 63.6847 106.377 63.6321 106.378V106.378Z" fill="#231F20"/>
<path d="M127.905 83.0902C127.905 83.0902 103.529 69.9516 90.4835 71.3859C87.1876 71.7811 83.924 72.3933 80.7157 73.2183C73.1437 75.0854 65.6363 77.663 60.3049 78.5861C49.7192 80.3953 41.2788 78.18 39.7126 67.5123C38.3864 58.383 42.6245 56.1095 51.7357 52.3343C56.2423 50.4691 65.0901 47.9876 73.3112 44.5639C78.3243 42.4724 83.1111 40.0358 86.5208 37.1749C95.5515 29.6245 100.9 14.4225 100.9 14.4225L127.905 83.0902Z" fill="white"/>
<path d="M127.939 83.3236C127.88 83.3326 127.82 83.322 127.769 83.2934C127.524 83.1621 103.302 70.2093 90.5114 71.6201C87.2279 72.0128 83.9768 72.6233 80.7814 73.4474C77.6671 74.212 74.5917 75.093 71.6167 75.9448C67.4424 77.1417 63.5003 78.2706 60.3474 78.8076C53.4616 79.9804 48.1717 79.3327 44.6534 76.8623C41.8298 74.8915 40.0578 71.7491 39.4422 67.5113C38.0805 58.1382 42.6898 55.7675 51.6288 52.0577C53.5351 51.2745 56.2026 50.3897 59.2863 49.3384C63.5848 47.8976 68.4553 46.2641 73.2073 44.3079C79.0659 41.8605 83.3622 39.4576 86.3459 36.9602C95.2134 29.5373 100.593 14.474 100.643 14.3245C100.661 14.2734 100.696 14.2289 100.741 14.1972C100.787 14.1656 100.842 14.1483 100.898 14.1477C100.954 14.1456 101.01 14.1605 101.056 14.1903C101.103 14.2201 101.139 14.2634 101.159 14.3139L128.163 82.9764C128.183 83.0268 128.186 83.0817 128.172 83.1337C128.157 83.1858 128.127 83.2323 128.084 83.2671C128.042 83.2986 127.992 83.3181 127.939 83.3236V83.3236ZM89.2737 71.2459C89.6732 71.1926 90.062 71.1407 90.4453 71.0896C95.9006 70.4884 103.889 72.2829 114.183 76.419C120.397 78.9208 125.608 81.5619 127.382 82.4832L100.881 15.1653C99.7149 18.2027 94.5687 30.7444 86.673 37.3554C83.6484 39.8741 79.3087 42.3198 73.3923 44.7856C68.6278 46.7698 63.7527 48.4092 59.4434 49.8515C56.3682 50.8858 53.7123 51.7743 51.8168 52.556C42.8724 56.2667 38.6315 58.4454 39.9574 67.4584C40.5519 71.551 42.2272 74.5582 44.9308 76.4605C48.3476 78.8387 53.4965 79.4629 60.2312 78.3103C63.3516 77.7775 67.2829 76.6501 71.4418 75.4605C74.4222 74.608 77.503 73.7263 80.622 72.9557C83.4692 72.2267 86.3579 71.6558 89.2737 71.2459V71.2459Z" fill="#231F20"/>
<path d="M82.5289 72.754C74.9569 74.6211 65.5862 77.3681 60.2978 78.5497C48.2396 81.2482 42.1862 79.5127 39.9211 68.9595C37.5961 58.1075 42.6175 56.0732 51.7287 52.298C56.2352 50.4328 65.0831 47.9513 73.3041 44.5276C73.3041 44.5276 70.8972 50.6916 73.809 60.6193C75.231 65.4821 78.2993 69.752 82.5289 72.754V72.754Z" fill="#231F20"/>
<path d="M55.7607 79.6631C50.966 80.3029 47.5898 79.8705 45.1108 78.3401C42.4032 76.6762 40.6746 73.7185 39.6673 69.02C37.3066 57.9983 42.3583 55.907 51.5205 52.1039L51.6284 52.0895C53.5347 51.3063 56.2022 50.4216 59.2859 49.3702C63.5844 47.9294 68.4549 46.2959 73.2069 44.3398C73.2555 44.3192 73.3094 44.3131 73.3617 44.3221C73.414 44.3312 73.4623 44.355 73.5005 44.3905C73.5407 44.425 73.5689 44.4706 73.5811 44.521C73.5934 44.5714 73.5891 44.6242 73.5689 44.6722C73.5448 44.7336 71.2505 50.8773 74.0828 60.5988C75.5024 65.3948 78.5268 69.609 82.6884 72.5901C82.7327 72.6172 82.7677 72.6562 82.789 72.7022C82.8104 72.7483 82.8172 72.7993 82.8086 72.8491C82.7995 72.899 82.7759 72.9454 82.7404 72.983C82.7049 73.0205 82.6591 73.0475 82.6082 73.0609C79.1173 73.9233 75.2719 74.96 71.5539 75.9638C67.2694 77.1225 63.218 78.2184 60.3717 78.8574C58.6928 79.1977 57.1591 79.4764 55.7607 79.6631ZM72.8855 45.0066C68.2933 46.8885 63.6227 48.4583 59.4762 49.8472C56.4011 50.8815 53.7451 51.77 51.8497 52.5517L51.7462 52.5973C42.8373 56.2873 37.9316 58.322 40.2065 68.9427C41.1804 73.4871 42.8331 76.3386 45.4021 77.9205C48.4843 79.8146 53.0598 79.9389 60.2508 78.3288C63.0872 77.6965 67.1548 76.5985 71.3906 75.4462C74.9127 74.495 78.5512 73.5124 81.8924 72.6805C77.8798 69.6314 74.9626 65.4511 73.5512 60.7279C71.1588 52.4812 72.3792 46.7504 72.8747 45.0081L72.8855 45.0066Z" fill="#231F20"/>
<path d="M135.92 83.9665C127.959 86.4883 117.249 77.0991 109.432 61.8986C105.492 54.169 102.661 45.9625 101.017 37.5034C97.8081 20.7203 100.585 6.95077 108.589 4.41794C118.487 1.28336 132.631 16.5436 140.181 38.5108C147.732 60.478 145.823 80.8312 135.92 83.9665Z" fill="url(#paint0_linear_1041_12623)"/>
<path d="M110.06 4.09458C119.849 2.78817 132.995 17.6211 140.181 38.516C147.731 60.4832 145.821 80.8311 135.918 83.9664C135.439 84.1192 134.947 84.2291 134.447 84.295C126.672 85.3326 116.756 76.1811 109.43 61.8986C105.49 54.169 102.659 45.9625 101.015 37.5034C97.8065 20.7203 100.584 6.95077 108.587 4.41795C109.066 4.26524 109.559 4.15526 110.059 4.08939M109.983 3.57068C109.451 3.64133 108.926 3.75913 108.416 3.92258C100.307 6.48538 97.1157 20.0194 100.478 37.5962C102.135 46.1018 104.982 54.3537 108.941 62.1279C116.574 76.9722 126.611 85.8642 134.521 84.8085C135.054 84.7379 135.579 84.6201 136.089 84.4566C141.098 82.8733 144.313 77.1514 145.136 68.3433C145.948 59.6901 144.373 49.0394 140.695 38.3468C137.218 28.2357 132.178 19.0837 126.503 12.6393C120.828 6.19492 114.93 2.91582 109.99 3.57515L109.983 3.57068Z" fill="#231F20"/>
<path d="M125.161 53.951L109.429 61.8986C105.489 54.1691 102.658 45.9625 101.014 37.5034L119.679 35.0124L125.161 53.951Z" fill="white"/>
<path d="M125.163 53.9619C127.693 53.277 128.499 48.4904 126.965 43.2707C125.43 38.0511 122.135 34.3749 119.605 35.0598C117.076 35.7447 116.27 40.5313 117.804 45.751C119.339 50.9706 122.634 54.6468 125.163 53.9619Z" fill="#D1D3D4"/>
<path d="M89.5641 99.7398C89.5027 99.7495 89.4396 99.7387 89.3854 99.7092C89.3312 99.6796 89.2892 99.6331 89.2663 99.5775C89.2434 99.5218 89.241 99.4602 89.2596 99.4031C89.2782 99.346 89.3166 99.2967 89.3684 99.2635C90.9255 98.2041 92.6332 97.3653 94.4391 96.7727C94.5084 96.7542 94.5826 96.7624 94.6459 96.7953C94.7092 96.8283 94.7567 96.8836 94.7785 96.9495C94.7887 96.9826 94.7921 97.0172 94.7884 97.0515C94.7848 97.0857 94.7741 97.1189 94.757 97.1492C94.7399 97.1795 94.7168 97.2063 94.6889 97.2279C94.6611 97.2496 94.629 97.2658 94.5947 97.2755C92.8482 97.8568 91.1952 98.6702 89.6838 99.6921C89.649 99.7178 89.6077 99.7343 89.5641 99.7398Z" fill="#231F20"/>
<path d="M85.5717 96.196C85.503 96.2037 85.4338 96.1866 85.3776 96.1479C85.349 96.1276 85.3249 96.102 85.3068 96.0726C85.2886 96.0433 85.2767 96.0107 85.2718 95.9769C85.2669 95.9431 85.269 95.9087 85.2782 95.8756C85.2873 95.8426 85.3031 95.8117 85.3248 95.7847C86.748 94.0334 88.7575 92.8086 91.0133 92.3176C91.0832 92.3024 91.1566 92.3143 91.2175 92.3507C91.2785 92.3871 91.322 92.4451 91.3388 92.5122C91.3474 92.5455 91.349 92.5801 91.3434 92.6141C91.3378 92.648 91.3253 92.6805 91.3064 92.7096C91.2875 92.7387 91.2628 92.764 91.2336 92.7837C91.2044 92.8035 91.1714 92.8175 91.1365 92.8248C89.0189 93.3056 87.1299 94.4531 85.7702 96.0849C85.7471 96.1157 85.7174 96.1415 85.6832 96.1607C85.649 96.1798 85.6111 96.1919 85.5717 96.196V96.196Z" fill="#231F20"/>
<path d="M95.9328 101.798C95.8983 101.809 95.8619 101.814 95.8254 101.812C95.789 101.81 95.7533 101.801 95.7204 101.786C95.6875 101.771 95.6581 101.749 95.6338 101.723C95.6095 101.697 95.5907 101.666 95.5787 101.633C95.5667 101.6 95.5615 101.565 95.5636 101.53C95.5657 101.495 95.5749 101.461 95.5907 101.429C95.6066 101.398 95.6288 101.369 95.656 101.346C95.6832 101.323 95.715 101.305 95.7495 101.293L97.4404 100.317C97.5023 100.28 97.5767 100.269 97.6472 100.285C97.7177 100.302 97.7786 100.344 97.8164 100.404C97.8542 100.463 97.8659 100.535 97.8489 100.603C97.8319 100.67 97.7876 100.729 97.7257 100.765L96.0348 101.742C96.0056 101.768 95.9708 101.787 95.9328 101.798V101.798Z" fill="#231F20"/>
<path d="M77.061 124.441C77.061 124.441 80.2103 121.303 80.256 121.011C80.3017 120.72 61.2573 107.684 61.2573 107.684L52.5939 114.693L77.061 124.441Z" fill="#231F20"/>
<path d="M77.0949 124.701C77.0473 124.707 76.9987 124.701 76.9547 124.682L52.4605 114.938C52.4173 114.921 52.3793 114.894 52.3501 114.859C52.3209 114.824 52.3016 114.783 52.2939 114.738C52.2871 114.694 52.2925 114.648 52.3096 114.606C52.3266 114.564 52.3547 114.527 52.3911 114.498L61.0885 107.457C61.1352 107.421 61.1929 107.4 61.2532 107.397C61.3134 107.395 61.3728 107.412 61.4224 107.445C80.5998 120.6 80.5581 120.844 80.5227 121.055C80.5355 121.143 80.4605 121.423 77.2548 124.626C77.2116 124.668 77.1553 124.694 77.0949 124.701V124.701ZM53.0645 114.625L76.9727 124.125C78.2368 122.861 79.556 121.485 79.8982 121.038C78.645 119.989 68.307 112.818 61.264 107.984L53.0645 114.625Z" fill="#231F20"/>
<path d="M78.1167 124.586L54.552 110.403L17.7379 140.353L67.1749 140.349L78.1167 124.586Z" fill="#45505C"/>
<path d="M49.1124 78.3401C49.0577 78.3464 49.0024 78.3372 48.953 78.3137C48.9037 78.2903 48.8625 78.2535 48.8345 78.208C44.3808 70.5483 42.9461 62.9458 44.7833 56.7996C44.8207 56.6783 44.8418 56.5961 44.8527 56.5576C44.8479 56.5252 44.8501 56.4921 44.8593 56.4605C44.8685 56.429 44.8845 56.3996 44.9062 56.3743C44.9279 56.349 44.9549 56.3284 44.9854 56.3137C45.0159 56.299 45.0493 56.2905 45.0834 56.2889C45.1581 56.2844 45.2318 56.3079 45.2889 56.3545C45.346 56.4012 45.382 56.4673 45.3894 56.5389C45.391 56.6789 45.3624 56.8178 45.3055 56.9467C43.5089 62.9553 44.9287 70.417 49.3088 77.949C49.3432 78.0098 49.3518 78.0809 49.3327 78.1476C49.3137 78.2142 49.2684 78.2711 49.2066 78.3064C49.1784 78.3247 49.1462 78.3362 49.1124 78.3401V78.3401Z" fill="white"/>
<path d="M56.009 53.3032C55.9461 53.3104 55.8825 53.2967 55.8288 53.2645C55.775 53.2322 55.7344 53.1833 55.7135 53.1258C55.7016 53.0937 55.6966 53.0596 55.6986 53.0256C55.7006 52.9916 55.7096 52.9583 55.7251 52.9277C55.7406 52.897 55.7624 52.8697 55.789 52.8472C55.8157 52.8247 55.8467 52.8076 55.8804 52.7968L67.4335 48.9702C67.4668 48.958 67.5024 48.9526 67.5381 48.9542C67.5738 48.9558 67.6087 48.9643 67.6408 48.9794C67.6729 48.9944 67.7014 49.0156 67.7247 49.0416C67.7479 49.0676 67.7654 49.098 67.776 49.1307C67.788 49.1631 67.7932 49.1975 67.7913 49.2319C67.7894 49.2662 67.7805 49.2999 67.7651 49.3309C67.7496 49.362 67.728 49.3898 67.7014 49.4128C67.6748 49.4358 67.6437 49.4535 67.6099 49.4649L56.0568 53.2916L56.009 53.3032Z" fill="white"/>
<path d="M56.3332 55.5441C56.2703 55.5512 56.2067 55.5376 56.153 55.5053C56.0993 55.473 56.0586 55.4241 56.0377 55.3666C56.0259 55.3345 56.0208 55.3004 56.0228 55.2664C56.0248 55.2324 56.0338 55.1991 56.0493 55.1685C56.0649 55.1378 56.0866 55.1105 56.1132 55.088C56.1399 55.0656 56.1709 55.0484 56.2046 55.0376L67.7577 51.211C67.7911 51.1988 67.8267 51.1934 67.8623 51.195C67.898 51.1966 67.9329 51.2051 67.965 51.2202C67.9971 51.2352 68.0256 51.2564 68.0489 51.2824C68.0722 51.3085 68.0896 51.3388 68.1002 51.3715C68.1122 51.404 68.1174 51.4383 68.1155 51.4727C68.1136 51.507 68.1047 51.5407 68.0893 51.5717C68.0739 51.6028 68.0522 51.6306 68.0256 51.6536C67.999 51.6766 67.9679 51.6943 67.9341 51.7057L56.381 55.5324L56.3332 55.5441Z" fill="white"/>
<path d="M56.709 58.1221C56.6468 58.1304 56.5834 58.1178 56.5297 58.0864C56.476 58.055 56.4352 58.0068 56.4143 57.9498C56.3916 57.8843 56.3963 57.8128 56.4272 57.7505C56.4582 57.6882 56.5131 57.6399 56.5804 57.6156L68.1335 53.789C68.2019 53.7675 68.2763 53.7729 68.3407 53.8039C68.405 53.8349 68.4539 53.8892 68.4768 53.9547C68.4895 53.9868 68.4952 54.021 68.4935 54.0553C68.4919 54.0895 68.483 54.1231 68.4674 54.1539C68.4517 54.1847 68.4297 54.2121 68.4026 54.2345C68.3756 54.2568 68.344 54.2736 68.31 54.2837L56.7569 58.1104L56.709 58.1221Z" fill="white"/>
<defs>
<linearGradient id="paint0_linear_1041_12623" x1="114.184" y1="65.0671" x2="173.3" y2="48.836" gradientUnits="userSpaceOnUse">
<stop offset="0.152215" stop-color="#929090"/>
<stop offset="1" stop-color="#BFBFBF" stop-opacity="0"/>
</linearGradient>
</defs>
</svg>
