<svg width="369" height="368" viewBox="0 0 369 368" fill="none" xmlns="http://www.w3.org/2000/svg">
<path d="M220.434 366.868C341.202 366.868 440.906 267.027 440.906 146.434C440.906 25.6664 341.027 -74 220.259 -74C99.7048 -74 0 25.6664 0 146.434C0 267.027 99.8798 366.868 220.434 366.868Z" fill="#62B2A1"/>
<path d="M134.243 196.066H155.707V93.5016H134.243C104.87 93.5016 89 108.95 89 137.267V152.32C89 180.551 104.87 196.066 134.243 196.066ZM170.912 196.172C201.246 199.597 232.563 208.721 262.755 223.601C262.697 222.374 262.678 221.042 262.678 219.814V69.8611C262.678 68.4992 262.697 67.3294 262.736 65.9865C232.778 80.7819 198.683 90.4885 170.912 93.5016V196.172ZM300.304 248.772C313.64 248.772 323 239.326 323 226.124V62.7347C323 49.4469 313.64 40 300.304 40C287.122 40 277.675 49.4469 277.675 62.7347V226.124C277.675 239.326 287.122 248.772 300.304 248.772ZM177.213 268.739C190.837 268.739 200.995 258.641 197.256 242.041L191.267 214.8C181.799 212.952 168.539 211.774 141.467 211.149C139.624 211.149 136.674 210.976 133.619 210.957L152.077 249.95C157.679 261.781 164.358 268.739 177.213 268.739Z" fill="white"/>
</svg>
