<svg width="264" height="95" viewBox="0 0 264 95" fill="none" xmlns="http://www.w3.org/2000/svg">
<path d="M38.784 33.176C36.864 33.176 35.04 33.56 33.312 34.328C31.648 35.032 30.176 36.056 28.896 37.4C27.68 38.68 26.688 40.184 25.92 41.912C25.216 43.576 24.864 45.368 24.864 47.288C24.8 50.552 24.128 53.624 22.848 56.504C21.568 59.32 19.808 61.816 17.568 63.992C15.392 66.104 12.832 67.8 9.888 69.08C7.008 70.296 3.936 70.904 0.672 70.904V60.632C2.592 60.632 4.384 60.28 6.048 59.576C7.776 58.808 9.248 57.816 10.464 56.6C11.744 55.32 12.736 53.848 13.44 52.184C14.208 50.456 14.592 48.632 14.592 46.712C14.656 43.448 15.296 40.376 16.512 37.496C17.792 34.616 19.488 32.088 21.6 29.912C23.776 27.736 26.304 26.04 29.184 24.824C32.064 23.544 35.136 22.904 38.4 22.904L38.784 33.176ZM51.663 71H41.775V23H51.663V71ZM51.663 12.92H41.775V10.808L51.663 0.823999V12.92ZM101.98 37.496C102.556 38.968 103.004 40.504 103.324 42.104C103.644 43.704 103.804 45.336 103.804 47V76.664C103.804 80.184 103.1 83.448 101.692 86.456C100.348 89.528 98.4918 92.184 96.1238 94.424L88.7318 87.608C90.3318 86.264 91.6118 84.632 92.5718 82.712C93.5318 80.856 93.9798 78.84 93.9158 76.664L93.8198 46.808C93.8198 45.016 93.4358 43.192 92.6678 41.336C92.5398 40.952 92.3798 40.6 92.1878 40.28C91.9958 39.896 91.7718 39.48 91.5158 39.032C90.2358 37.112 88.5398 35.608 86.4278 34.52C84.3798 33.368 82.1078 32.792 79.6118 32.792C77.6918 32.792 75.8998 33.176 74.2358 33.944C72.5718 34.648 71.0998 35.64 69.8198 36.92C68.5398 38.2 67.5158 39.704 66.7478 41.432C66.0438 43.096 65.6918 44.888 65.6918 46.808C65.6918 48.728 66.0438 50.552 66.7478 52.28C67.5158 54.008 68.5398 55.512 69.8198 56.792C71.0998 58.072 72.5718 59.096 74.2358 59.864C75.8998 60.568 77.6918 60.92 79.6118 60.92C80.3158 60.92 80.9558 60.92 81.5318 60.92C82.1078 60.856 82.6838 60.728 83.2598 60.536L85.5638 70.136C84.6678 70.456 83.7078 70.68 82.6838 70.808C81.7238 70.936 80.6998 71 79.6118 71C76.6038 71 73.7238 70.456 70.9718 69.368C68.2838 68.28 65.8518 66.776 63.6758 64.856C61.5638 62.936 59.8038 60.696 58.3958 58.136C57.0518 55.512 56.2198 52.696 55.8998 49.688C55.7718 49.112 55.7078 48.6 55.7078 48.152C55.7078 47.704 55.7078 47.256 55.7078 46.808C55.7078 43.48 56.3158 40.376 57.5318 37.496C58.8118 34.616 60.5398 32.088 62.7158 29.912C64.8918 27.736 67.4198 26.04 70.2998 24.824C73.2438 23.544 76.3478 22.904 79.6118 22.904C82.1078 22.904 84.5078 23.256 86.8118 23.96C89.1158 24.664 91.2278 25.688 93.1478 27.032C95.1318 28.312 96.8598 29.848 98.3318 31.64C99.8678 33.432 101.084 35.384 101.98 37.496ZM157.757 71H147.773V47C147.773 45.08 147.389 43.256 146.621 41.528C145.917 39.8 144.925 38.328 143.645 37.112C142.365 35.832 140.861 34.84 139.133 34.136C137.469 33.368 135.677 32.984 133.757 32.984C131.837 32.984 130.013 33.368 128.285 34.136C126.621 34.84 125.149 35.832 123.869 37.112C122.589 38.328 121.565 39.8 120.797 41.528C120.093 43.256 119.741 45.08 119.741 47V71H109.757V47C109.693 43.736 110.269 40.664 111.485 37.784C112.765 34.84 114.493 32.28 116.669 30.104C118.845 27.928 121.405 26.2 124.349 24.92C127.293 23.64 130.429 23 133.757 23C137.085 23 140.221 23.64 143.165 24.92C146.109 26.2 148.669 27.928 150.845 30.104C153.021 32.28 154.717 34.84 155.933 37.784C157.213 40.664 157.821 43.736 157.757 47V71ZM209.407 47C209.471 50.264 208.863 53.368 207.583 56.312C206.367 59.192 204.671 61.72 202.495 63.896C200.319 66.008 197.759 67.704 194.815 68.984C191.935 70.264 188.863 70.936 185.599 71H185.407C182.143 70.936 179.039 70.264 176.095 68.984C173.215 67.704 170.687 66.008 168.511 63.896C166.335 61.72 164.607 59.192 163.327 56.312C162.111 53.368 161.535 50.264 161.599 47V23H171.679L171.583 47C171.583 48.92 171.935 50.744 172.639 52.472C173.343 54.136 174.303 55.608 175.519 56.888C176.799 58.168 178.271 59.192 179.935 59.96C181.663 60.664 183.487 61.016 185.407 61.016C187.391 61.016 189.215 60.664 190.879 59.96C192.607 59.192 194.079 58.168 195.295 56.888C196.575 55.608 197.567 54.136 198.271 52.472C199.039 50.744 199.423 48.92 199.423 47V23H209.407V47ZM238.94 71C236.828 71 234.876 70.776 233.084 70.328L235.484 60.632C236.508 61.016 237.66 61.208 238.94 61.208C240.86 61.208 242.684 60.856 244.412 60.152C246.14 59.384 247.644 58.36 248.924 57.08C250.204 55.8 251.196 54.296 251.9 52.568C252.668 50.84 253.052 48.984 253.052 47C253.052 45.08 252.668 43.288 251.9 41.624C251.196 39.896 250.204 38.392 248.924 37.112C247.644 35.832 246.14 34.84 244.412 34.136C242.684 33.368 240.86 32.984 238.94 32.984C237.02 32.984 235.196 33.368 233.468 34.136C231.74 34.84 230.236 35.832 228.956 37.112C227.676 38.392 226.652 39.896 225.884 41.624C225.18 43.288 224.828 45.08 224.828 47V47.192V93.368L215.036 83.48V47.192V47C215.036 43.736 215.644 40.664 216.86 37.784C218.14 34.84 219.836 32.28 221.948 30.104C224.124 27.928 226.652 26.2 229.532 24.92C232.476 23.64 235.612 23 238.94 23C242.204 23 245.308 23.64 248.252 24.92C251.196 26.2 253.756 27.928 255.932 30.104C258.108 32.28 259.836 34.84 261.116 37.784C262.396 40.664 263.036 43.736 263.036 47C263.036 50.328 262.396 53.464 261.116 56.408C259.836 59.288 258.108 61.816 255.932 63.992C253.756 66.168 251.196 67.896 248.252 69.176C245.308 70.392 242.204 71 238.94 71Z" fill="#62B2A1"/>
</svg>
