<svg width="55" height="80" viewBox="0 0 55 80" fill="none" xmlns="http://www.w3.org/2000/svg">
<path d="M20.4219 0.152344C19 0.355469 16.8281 1.02734 15.4219 1.68359C13.4531 2.60547 11.8125 3.79297 10.1875 5.44922C7.32812 8.38672 5.64062 11.8867 5.1875 15.918C5.09375 16.7148 5.03125 25.8086 5.03125 38.7461V60.2305L4.57812 60.5586C3.76562 61.168 2.17188 63.3242 1.48438 64.7461C0.234375 67.3555 0.140625 67.9336 0.0625 73.8398L0 79.043L0.46875 79.5117C0.734375 79.7617 1.09375 79.9805 1.28125 79.9805C1.8125 79.9805 2.51562 79.543 2.60938 79.1523C2.64062 78.9648 2.70312 76.5898 2.73438 73.8867C2.79688 68.3711 2.84375 68.043 3.9375 65.8242C4.28125 65.1367 4.82812 64.2461 5.15625 63.8711L5.78125 63.1836L7.01562 64.3711C9.46875 66.7148 11.9688 68.0117 15.4219 68.7617C16.6875 69.0273 20.7344 68.9961 22.1875 68.6992C22.7969 68.5742 23.3125 68.5117 23.3125 68.5898C23.3125 68.6523 22.75 70.8398 22.0469 73.4492C21.3594 76.043 20.7812 78.3711 20.7812 78.6055C20.7344 79.9805 22.5 80.4805 23.1719 79.2773C23.3125 79.0117 24.0781 76.293 24.8906 73.1992C26.1875 68.2305 26.3906 67.5742 26.7031 67.4336C26.9531 67.3242 27.1719 67.3242 27.4219 67.4336C27.7344 67.5742 27.9375 68.2461 29.2344 73.1992C30.0469 76.293 30.7969 78.9961 30.9219 79.2305C31.5312 80.4648 33.3125 80.0586 33.3125 78.6836C33.3125 78.3867 32.75 76.0273 32.0625 73.4336C31.375 70.8242 30.8125 68.6523 30.8125 68.5898C30.8125 68.5273 31.25 68.5586 31.7969 68.6836C35.375 69.4336 39.5312 68.9492 42.7656 67.418C44.6875 66.5117 45.1875 66.0586 45.1875 65.2773C45.1875 64.8867 45.0781 64.5586 44.875 64.3555C44.2969 63.7773 43.9375 63.8242 42.1875 64.7148C39.4844 66.1055 36.4844 66.6367 33.5469 66.2461C32.0156 66.043 30.1875 65.6367 29.9844 65.4492C29.9062 65.3867 30.7344 64.6523 31.7969 63.8398C32.8594 63.0117 33.7812 62.2305 33.8438 62.0898C34.0625 61.4805 33.9375 60.9492 33.4531 60.543C32.5938 59.8086 32.6406 59.793 28.6406 62.918C27.8281 63.543 27.0781 64.0273 26.9688 63.9805C26.7031 63.8867 19.2812 58.1367 19.1719 57.9336C19.125 57.8555 19.3438 57.543 19.6562 57.2305C20.8281 56.043 21.5781 54.5742 21.9844 52.5742C22.0625 52.2148 22.1406 52.1523 22.4219 52.2305C24.9531 52.9336 28.8594 52.9492 31.4844 52.2617C34.5312 51.4805 37.3594 49.8398 39.6406 47.5586C41.7031 45.4961 43.125 43.2148 44 40.5273C44.7656 38.1523 44.875 36.9805 44.875 30.918C44.875 24.4805 44.9844 24.918 43.2969 24.3086C40.5156 23.3242 38.0312 21.1992 36.7656 18.7305C35.875 16.9961 35.5938 16.6992 34.8594 16.6992C34.1875 16.6992 34.1406 16.7461 32.7031 18.9648C31.6875 20.5273 29.75 22.4961 28.2031 23.543C27.6719 23.9023 27.2031 24.1992 27.1719 24.1992C27.125 24.1992 27.0625 23.8398 27 23.4023C26.75 21.4961 25.8125 19.9805 24.9062 19.9805C24.3438 19.9805 24.0938 20.1992 22.9844 21.5898C21.0156 24.0898 18.4531 25.543 15.2969 25.9336C13.8125 26.1367 13.4062 26.3555 13.2188 27.0742C13.1719 27.2773 13.2188 27.6523 13.3438 27.8867C13.6562 28.5586 14.1719 28.7617 15.3438 28.6523C18.3281 28.3711 20.8594 27.2148 23.5312 24.918L24.4531 24.1211L24.3438 25.5742C24.2344 26.9961 24.25 27.0273 24.6562 27.4023C25.25 27.9492 25.7656 27.9023 27.2656 27.1523C30.1562 25.6992 32.3594 23.8867 34.4219 21.2617L34.8125 20.7461L35.3906 21.5898C36.6719 23.4336 38.9844 25.3398 41.1719 26.3086L42.2031 26.7773L42.2188 31.5586C42.2188 36.6367 42.0938 37.8711 41.4062 39.9023C40.3594 42.9492 38.1875 45.7773 35.4531 47.6211C34.3438 48.3711 32.25 49.3086 30.8594 49.6992C29.0156 50.1992 25.1719 50.1992 23.3125 49.6992C19.9375 48.7773 17.0469 46.8398 15.0312 44.168C12.6875 41.0742 11.9062 38.4023 11.9062 33.543V30.7305L11.4531 30.2773C10.875 29.6992 10.2344 29.6836 9.65625 30.2148L9.25 30.5898V33.5273C9.25 36.7773 9.45312 38.3711 10.1094 40.4492C11.4688 44.6836 14.5156 48.418 18.375 50.543C19.3281 51.0586 19.4062 51.1367 19.4062 51.6211C19.4062 53.0742 18.4375 54.8867 17.1406 55.8867C16.2031 56.6055 15.3281 56.8711 13.3125 57.0273C11.4531 57.168 9.95312 57.4961 8.5 58.0898L7.67188 58.418L7.71875 37.043L7.76562 15.6836L8.20312 14.1211C9.84375 8.12109 14.8906 3.60547 20.8594 2.80859C22.4688 2.58984 31.8438 2.58984 33.4062 2.80859C36.7188 3.26172 39.6562 4.73047 42.0781 7.15234C44.0312 9.10547 45.3125 11.3398 46.1094 14.1992L46.5156 15.6836L46.5938 35.1836L46.6719 54.6992L47.0469 54.9961C47.5938 55.4336 48.25 55.3711 48.7969 54.8398L49.25 54.3867V35.7305C49.25 23.1055 49.1875 16.6367 49.0781 15.6836C48.0938 7.71484 41.7188 1.26172 33.7188 0.152344C32.2969 -0.0507812 21.7969 -0.0507812 20.4219 0.152344ZM20.4062 62.3398C22.5312 63.9961 24.2188 65.3867 24.1406 65.4492C23.9688 65.6055 22.0625 66.043 20.7344 66.2305C19.1562 66.4492 17.7656 66.418 16.1875 66.1523C13.3125 65.6367 11.0938 64.5586 9.03125 62.6211L7.76562 61.4336L8.875 60.8711C10.3281 60.1367 11.4844 59.8555 13.7969 59.668C14.8438 59.5742 15.75 59.4805 15.7812 59.4336C16.0938 59.1211 16.9219 59.6523 20.4062 62.3398Z" fill="black"/>
<path d="M33.6555 53.9805C32.7024 54.6523 32.9993 55.7773 34.5618 57.3086C36.093 58.8242 38.1712 59.668 40.3587 59.668C41.8743 59.668 43.5774 60.0898 45.1087 60.8398C47.4993 62.0117 49.0618 63.5586 50.1868 65.8398C51.2649 68.0117 51.3118 68.3555 51.4212 74.1523C51.5305 79.9023 51.4993 79.7461 52.5774 79.9336C53.0618 80.0117 53.2024 79.9492 53.6243 79.5273L54.1243 79.043L54.0618 73.8398C53.9993 69.1523 53.9524 68.5273 53.6555 67.4023C53.2024 65.7305 52.1087 63.5586 51.0305 62.168C48.593 59.0742 44.3899 57.0117 40.4524 57.0117C39.3118 57.0117 37.8274 56.5117 36.8743 55.8086C36.4524 55.5117 36.1243 55.2148 36.1243 55.1523C36.1243 55.0898 35.8587 54.7461 35.5305 54.3867C34.8587 53.668 34.2805 53.543 33.6555 53.9805Z" fill="black"/>
</svg>
