<svg width="369" height="368" viewBox="0 0 369 368" fill="none" xmlns="http://www.w3.org/2000/svg">
<rect width="369" height="368" fill="#CDCDCD"/>
<g filter="url(#filter0_d_0_1)">
<g clip-path="url(#clip0_0_1)">
<rect x="-116" width="485" height="619" rx="10" fill="white"/>
</g>
</g>
<path d="M196.689 252.855C188.664 252.855 182.073 249.367 176.1 241.628L123.793 177.999C119.977 173.116 118.018 168.189 118.018 162.781C118.018 151.907 126.641 143.088 137.475 143.088C144.241 143.088 149.36 145.356 154.85 152.399L195.989 204.633L284.249 63.3196C288.881 56.0325 294.93 52.1948 301.478 52.1948C312.139 52.1948 321.927 59.6739 321.927 70.8584C321.927 75.7847 319.344 81.0014 316.361 85.9063L216.502 241.475C211.597 248.941 204.676 252.855 196.689 252.855Z" fill="white"/>
<path d="M220.434 367.868C341.202 367.868 440.906 268.027 440.906 147.434C440.906 26.6664 341.027 -73 220.259 -73C99.7048 -73 0 26.6664 0 147.434C0 268.027 99.8798 367.868 220.434 367.868Z" fill="#62B2A1"/>
<path d="M148.243 190.066H169.707V87.5016H148.243C118.87 87.5016 103 102.95 103 131.267V146.32C103 174.551 118.87 190.066 148.243 190.066ZM184.912 190.172C215.246 193.597 246.563 202.721 276.755 217.601C276.697 216.374 276.678 215.042 276.678 213.814V63.8611C276.678 62.4992 276.697 61.3294 276.736 59.9865C246.778 74.7819 212.683 84.4885 184.912 87.5016V190.172ZM314.304 242.772C327.64 242.772 337 233.326 337 220.124V56.7347C337 43.4469 327.64 34 314.304 34C301.122 34 291.675 43.4469 291.675 56.7347V220.124C291.675 233.326 301.122 242.772 314.304 242.772ZM191.213 262.739C204.837 262.739 214.995 252.641 211.256 236.041L205.267 208.8C195.799 206.952 182.539 205.774 155.467 205.149C153.624 205.149 150.674 204.976 147.619 204.957L166.077 243.95C171.679 255.781 178.358 262.739 191.213 262.739Z" fill="white"/>
<defs>
<filter id="filter0_d_0_1" x="-176" y="-20" width="565" height="699" filterUnits="userSpaceOnUse" color-interpolation-filters="sRGB">
<feFlood flood-opacity="0" result="BackgroundImageFix"/>
<feColorMatrix in="SourceAlpha" type="matrix" values="0 0 0 0 0 0 0 0 0 0 0 0 0 0 0 0 0 0 127 0" result="hardAlpha"/>
<feOffset dx="-20" dy="20"/>
<feGaussianBlur stdDeviation="20"/>
<feComposite in2="hardAlpha" operator="out"/>
<feColorMatrix type="matrix" values="0 0 0 0 0.695833 0 0 0 0 0.668093 0 0 0 0 0.658142 0 0 0 0.48 0"/>
<feBlend mode="normal" in2="BackgroundImageFix" result="effect1_dropShadow_0_1"/>
<feBlend mode="normal" in="SourceGraphic" in2="effect1_dropShadow_0_1" result="shape"/>
</filter>
<clipPath id="clip0_0_1">
<rect x="-116" width="485" height="619" rx="10" fill="white"/>
</clipPath>
</defs>
</svg>
