<svg width="618" height="852" viewBox="0 0 618 852" fill="none" xmlns="http://www.w3.org/2000/svg">
<rect width="618" height="1024" fill="#62B2A1"/>
<path d="M348.593 513.79L376.497 504.169C385.719 500.982 390.598 491.013 387.325 481.972C384.053 472.931 373.938 468.179 364.657 471.367L336.753 480.987C327.531 484.175 322.652 494.143 325.925 503.184C329.197 512.225 339.371 516.977 348.593 513.79Z" fill="#F6F6F6"/>
<path d="M424.584 647.248L426.483 646.489C431.703 644.411 434.162 638.777 431.919 633.903L365.607 488.906C363.363 484.031 357.323 481.754 352.103 483.832L350.205 484.591C344.984 486.668 342.525 492.302 344.769 497.177L411.081 642.173C413.281 647.048 419.321 649.285 424.584 647.248Z" fill="#F6F6F6"/>
<path d="M439.094 372.047C439.094 443.87 380.87 502.094 309.047 502.094C237.224 502.094 179 443.87 179 372.047C179 300.224 237.224 242 309.047 242C380.87 242 439.094 300.224 439.094 372.047ZM203.721 372.047C203.721 430.217 250.877 477.372 309.047 477.372C367.217 477.372 414.372 430.217 414.372 372.047C414.372 313.877 367.217 266.721 309.047 266.721C250.877 266.721 203.721 313.877 203.721 372.047Z" fill="#F6F6F6"/>
</svg>
