<svg width="120" height="58" viewBox="0 0 120 58" fill="none" xmlns="http://www.w3.org/2000/svg">
<path d="M77.4471 38.3155L81.7196 36.9593C83.1316 36.5099 83.8786 35.1046 83.3776 33.8301C82.8766 32.5555 81.3279 31.8855 79.9068 32.3349L75.6342 33.6912C74.2222 34.1405 73.4752 35.5458 73.9763 36.8203C74.4773 38.0949 76.0351 38.7649 77.4471 38.3155Z" fill="#45505C"/>
<path d="M89.0826 57.1297L89.3733 57.0227C90.1726 56.7298 90.5491 55.9356 90.2056 55.2484L80.0523 34.8075C79.7088 34.1203 78.784 33.7993 77.9846 34.0922L77.694 34.1992C76.8947 34.4921 76.5181 35.2863 76.8616 35.9735L87.015 56.4144C87.3519 57.1016 88.2767 57.417 89.0826 57.1297Z" fill="#45505C"/>
<path d="M9.146 38.447V27.4533L0 11.626H7.49936L10.4436 18.0763C11.3296 19.9998 11.965 21.4424 12.6809 23.2167H12.7704C13.4147 21.5419 14.1128 19.9749 14.954 18.0763L17.8714 11.626H25.2544L15.7057 27.2543V38.4553H9.146V38.447Z" fill="#45505C"/>
<path d="M34.9705 31.5634L32.9442 38.4553H26.2256L34.9971 11.626H43.502L52.4513 38.4553H45.4483L43.2354 31.5634H34.9705ZM42.2756 27.0435L40.4804 21.3376C39.9828 19.7536 39.4762 17.7383 39.0318 16.1708H38.943C38.5253 17.7466 38.0898 19.7868 37.6277 21.3459L35.9125 27.0435H42.2756Z" fill="#45505C"/>
<path d="M95.1895 38.4387V11.626H102.912L109.003 21.4642C110.762 24.274 112.475 27.6308 113.798 30.6643L113.916 30.656C113.508 27.1086 113.381 23.5032 113.381 19.4502V11.6343H119.473V38.447H112.529L106.239 28.1198C104.489 25.2271 102.568 21.7875 101.145 18.6462L101 18.6628C101.208 22.2185 101.29 26.0145 101.29 30.3908V38.4553H95.1895V38.4387Z" fill="#45505C"/>
<path d="M89.7285 18.5C89.7285 28.7173 81.4458 37 71.2285 37C61.0112 37 52.7285 28.7173 52.7285 18.5C52.7285 8.28273 61.0112 0 71.2285 0C81.4458 0 89.7285 8.28273 89.7285 18.5ZM56.2453 18.5C56.2453 26.775 62.9535 33.4832 71.2285 33.4832C79.5035 33.4832 86.2117 26.775 86.2117 18.5C86.2117 10.225 79.5035 3.51677 71.2285 3.51677C62.9535 3.51677 56.2453 10.225 56.2453 18.5Z" fill="#45505C"/>
</svg>
