<svg width="323" height="168" viewBox="0 0 323 168" fill="none" xmlns="http://www.w3.org/2000/svg">
<path d="M193.062 107.625C222.782 107.625 246.875 83.5313 246.875 53.8125C246.875 24.0937 222.782 0 193.062 0C163.343 0 139.25 24.0937 139.25 53.8125C139.25 83.5313 163.343 107.625 193.062 107.625Z" fill="#45505C"/>
<path d="M193.062 99.75C218.433 99.75 239 79.1821 239 53.8125C239 28.4429 218.433 7.875 193.062 7.875C167.692 7.875 147.125 28.4429 147.125 53.8125C147.125 79.1821 167.692 99.75 193.062 99.75Z" fill="white"/>
<path d="M209.426 112.465L220.973 108.484C224.789 107.165 226.808 103.04 225.454 99.2989C224.1 95.5578 219.914 93.5913 216.074 94.9103L204.527 98.8912C200.711 100.21 198.692 104.335 200.046 108.076C201.4 111.817 205.61 113.784 209.426 112.465Z" fill="#45505C"/>
<path d="M240.871 167.689L241.657 167.375C243.817 166.515 244.834 164.184 243.906 162.167L216.467 102.168C215.538 100.151 213.039 99.2086 210.879 100.068L210.093 100.382C207.933 101.242 206.916 103.573 207.844 105.59L235.283 165.589C236.194 167.606 238.693 168.532 240.871 167.689Z" fill="#45505C"/>
<path d="M24.842 112.851V80.5816L0.125 34.125H20.392L28.3489 53.0581C30.7432 58.7039 32.4603 62.9384 34.3951 68.1462H34.637C36.3783 63.2304 38.2647 58.6309 40.5381 53.0581L48.4224 34.125H68.375L42.5696 79.9976V112.875H24.842V112.851Z" fill="#45505C"/>
<path d="M94.633 92.6458L89.1571 112.875H71L94.7051 34.125H117.69L141.875 112.875H122.949L116.969 92.6458H94.633ZM114.375 79.3788L109.524 62.6308C108.179 57.9812 106.81 52.0658 105.609 47.465H105.369C104.24 52.0902 103.063 58.0786 101.814 62.6551L97.1788 79.3788H114.375Z" fill="#45505C"/>
<path d="M257.375 112.826V34.125H278.246L294.707 63.0024C299.459 71.2496 304.089 81.1025 307.665 90.0066L307.984 89.9823C306.882 79.5698 306.539 68.9872 306.539 57.0907V34.1494H323V112.851H304.236L287.236 82.5379C282.508 74.0474 277.315 63.9512 273.469 54.7309L273.077 54.7795C273.64 65.2163 273.861 76.3586 273.861 89.2038V112.875H257.375V112.826Z" fill="#45505C"/>
</svg>
