<svg width="496" height="258" viewBox="0 0 496 258" fill="none" xmlns="http://www.w3.org/2000/svg">
<path d="M321.427 172.714L339.159 166.6C345.019 164.575 348.12 158.24 346.04 152.495C343.961 146.75 337.533 143.73 331.635 145.755L313.903 151.869C308.043 153.894 304.943 160.229 307.022 165.974C309.102 171.719 315.567 174.739 321.427 172.714Z" fill="#F6F6F6"/>
<path d="M369.717 257.522L370.924 257.04C374.241 255.719 375.804 252.139 374.378 249.042L332.239 156.901C330.813 153.803 326.975 152.356 323.658 153.676L322.451 154.159C319.134 155.479 317.571 159.059 318.997 162.157L361.136 254.297C362.534 257.395 366.373 258.817 369.717 257.522Z" fill="#F6F6F6"/>
<path d="M37.9583 173.306V123.75L0 52.4062H31.1243L43.3438 81.4821C47.0208 90.1525 49.6578 96.6553 52.6291 104.653H53.0005C55.6747 97.1038 58.5717 90.0404 62.063 81.4821L74.171 52.4062H104.813L65.1828 122.853V173.344H37.9583V173.306Z" fill="#F6F6F6"/>
<path d="M145.137 142.277L136.728 173.344H108.844L145.248 52.4062H180.546L217.687 173.344H188.623L179.439 142.277H145.137ZM175.456 121.903L168.005 96.183C165.94 89.0426 163.837 79.9582 161.993 72.8926H161.624C159.891 79.9956 158.083 89.1922 156.166 96.2204L149.047 121.903H175.456Z" fill="#F6F6F6"/>
<path d="M395.062 173.269V52.4062H427.114L452.394 96.7537C459.692 109.419 466.802 124.55 472.294 138.224L472.783 138.187C471.09 122.197 470.564 105.945 470.564 87.675V52.4436H495.844V173.306H467.028L440.92 126.755C433.66 113.716 425.684 98.2108 419.778 84.051L419.176 84.1257C420.041 100.154 420.38 117.265 420.38 136.992V173.344H395.062V173.269Z" fill="#F6F6F6"/>
<path d="M378.938 82.6406C378.938 128.282 341.938 165.281 296.297 165.281C250.656 165.281 213.656 128.282 213.656 82.6406C213.656 36.9995 250.656 0 296.297 0C341.938 0 378.938 36.9995 378.938 82.6406ZM229.366 82.6406C229.366 119.606 259.332 149.572 296.297 149.572C333.262 149.572 363.228 119.606 363.228 82.6406C363.228 45.6757 333.262 15.7096 296.297 15.7096C259.332 15.7096 229.366 45.6757 229.366 82.6406Z" fill="#F6F6F6"/>
</svg>
